<?xml version="1.0" encoding="utf-8"?>
<!-- Generator: Adobe Illustrator 24.3.0, SVG Export Plug-In . SVG Version: 6.00 Build 0)  -->
<svg version="1.1" id="Layer_1" xmlns="http://www.w3.org/2000/svg" xmlns:xlink="http://www.w3.org/1999/xlink" x="0px" y="0px"
	 viewBox="0 0 200.1 111" style="enable-background:new 0 0 200.1 111;" xml:space="preserve">
<style type="text/css">
	.st0{fill:#FFFFFF;}
</style>
<g>
	<g>
		<path class="st0" d="M29,25.3c-13,0-23.7,10.6-23.7,23.7c0,5.4,1.7,10.5,5.1,14.7c4.4,5.5,16.9,18.4,17.4,18.9l1.1,1.1l1.1-1.1
			c0.5-0.5,13.1-13.5,17.4-18.9c3.4-4.2,5.1-9.3,5.1-14.7C52.7,36,42,25.3,29,25.3z M45.1,61.7C41.6,66.1,32.2,75.9,29,79.2
			c-3.3-3.4-12.6-13.1-16.1-17.5c-2.9-3.7-4.4-8-4.4-12.7c0-11.3,9.2-20.6,20.6-20.6c11.3,0,20.6,9.2,20.6,20.6
			C49.5,53.7,48,58.1,45.1,61.7z"/>
		<path class="st0" d="M29,34.8c-7.7,0-14,6.3-14,14s6.3,14,14,14s14-6.3,14-14C43,41,36.7,34.8,29,34.8z M29,59.6
			c-6,0-10.9-4.9-10.9-10.9S23,37.8,29,37.8s10.9,4.9,10.9,10.9C39.9,54.7,35,59.6,29,59.6z"/>
		<path class="st0" d="M28.4,49.8l-4-3.2l-1.9,2.4l6.4,5.1l6.9-8.6l-2.4-2L28.4,49.8z"/>
	</g>
	<path class="st0" d="M79.9,64.6h2.3v15H90v2.1H79.9V64.6z M96.6,81.7c-1.2,0-2.3-0.2-3.2-0.9s-1.6-1.3-2.1-2.2
		c-0.5-1-0.7-2-0.7-3.2c0-1.2,0.2-2.2,0.7-3.2c0.5-1,1.1-1.7,2.1-2.2c0.9-0.6,2-0.9,3.2-0.9s2.2,0.2,3.2,0.9
		c0.9,0.5,1.6,1.2,2.1,2.2c0.5,1,0.7,2,0.7,3.2c0,1.2-0.2,2.2-0.7,3.2c-0.5,1-1.2,1.7-2.1,2.2C98.9,81.4,97.8,81.7,96.6,81.7z
		 M96.6,79.6c1.2,0,2.1-0.4,2.7-1.1c0.6-0.7,1-1.8,1-3.2c0-1.3-0.4-2.4-1-3.2c-0.6-0.7-1.6-1.1-2.7-1.1c-1.2,0-2.1,0.4-2.7,1.1
		c-0.6,0.7-1,1.8-1,3.2c0,1.3,0.4,2.4,1,3.2C94.5,79.3,95.5,79.6,96.6,79.6z M110.4,81.7c-1.3,0-2.4-0.2-3.4-0.9
		c-1-0.5-1.6-1.2-2.1-2.2c-0.5-1-0.7-2-0.7-3.2c0-1.8,0.5-3.4,1.6-4.5s2.7-1.7,4.8-1.7c1.2,0,2.3,0.2,3.3,0.7l-0.4,2
		c-1-0.5-2-0.7-2.9-0.7c-1.3,0-2.3,0.4-3.1,1.1c-0.7,0.7-1.1,1.8-1.1,3.2c0,1.3,0.4,2.4,1,3.2c0.7,0.7,1.7,1.1,3.1,1.1
		c1.1,0,2.1-0.2,3.1-0.7l0.2,1.7c-0.4,0.2-0.9,0.5-1.5,0.6C111.6,81.6,111,81.7,110.4,81.7z M118.7,81.7c-1.1,0-2-0.4-2.7-1
		c-0.6-0.6-1-1.5-1-2.4c0-1.5,0.7-2.6,2.2-3.3c1.5-0.6,3.1-1,5-1c0-1.1-0.2-1.8-0.6-2.2c-0.4-0.4-1.1-0.6-2-0.6
		c-0.5,0-1,0.1-1.5,0.2c-0.5,0.1-1.1,0.4-1.6,0.9l-0.4-1.8c0.5-0.4,1.1-0.7,1.8-0.9c0.7-0.2,1.5-0.4,2.2-0.4c1,0,1.8,0.1,2.4,0.5
		c0.6,0.4,1.1,1,1.3,1.8s0.5,2,0.5,3.4v2.4c0,0.6,0,1.1,0.1,1.5c0.1,0.4,0.2,0.6,0.4,0.7c0.2,0.1,0.5,0.2,0.9,0.2h0.2l-0.4,1.7h-0.1
		c-0.7,0-1.2-0.1-1.6-0.2s-0.7-0.4-0.9-0.6c-0.2-0.2-0.4-0.6-0.6-1C121.4,81.1,120.2,81.7,118.7,81.7z M119.2,79.9
		c0.6,0,1.1-0.1,1.7-0.5c0.6-0.2,1-0.7,1.3-1.2v-2.8c-1.7,0.1-3.1,0.2-3.8,0.7c-0.7,0.4-1.1,1-1.1,2c0,0.6,0.1,1.1,0.5,1.3
		C118.1,79.8,118.6,79.9,119.2,79.9z M131.5,81.7c-1.1,0-1.8-0.2-2.3-0.9c-0.5-0.6-0.7-1.2-0.7-2.1v-7.7h-2.1l0.2-1.7h1.8v-2.9
		l2.2-0.2v3.2h3.2v1.7h-3.2v6.3c0,0.9,0,1.3,0.1,1.7c0.1,0.4,0.2,0.5,0.6,0.6c0.4,0.1,0.9,0.1,1.7,0.1h0.6l-0.1,1.7h-2.1V81.7z
		 M135.7,64.3h2.2v2.4h-2.2V64.3z M135.7,69.5h2.2v12h-2.2V69.5z M146,81.7c-1.2,0-2.3-0.2-3.2-0.9c-0.9-0.6-1.6-1.3-2.1-2.2
		c-0.5-1-0.7-2-0.7-3.2c0-1.2,0.2-2.2,0.7-3.2c0.5-1,1.1-1.7,2.1-2.2c0.9-0.6,2-0.9,3.2-0.9s2.2,0.2,3.2,0.9
		c0.9,0.5,1.6,1.2,2.1,2.2c0.5,1,0.7,2,0.7,3.2c0,1.2-0.2,2.2-0.7,3.2c-0.5,1-1.2,1.7-2.1,2.2C148.4,81.4,147.3,81.7,146,81.7z
		 M146,79.6c1.2,0,2.1-0.4,2.7-1.1c0.6-0.7,1-1.8,1-3.2c0-1.3-0.4-2.4-1-3.2c-0.6-0.7-1.6-1.1-2.7-1.1c-1.2,0-2.1,0.4-2.7,1.1
		c-0.6,0.7-1,1.8-1,3.2c0,1.3,0.4,2.4,1,3.2C144,79.3,144.8,79.6,146,79.6z M160.2,69.1c3.3,0,4.9,1.8,4.9,5.6v6.6h-2.2v-6.6
		c0-1.3-0.2-2.2-0.7-2.8c-0.5-0.6-1.2-0.9-2.4-0.9c-0.7,0-1.3,0.1-2,0.4c-0.6,0.2-1,0.6-1.3,1.2v8.7h-2.2v-12h1.7l0.2,1.2
		c0.6-0.6,1.2-1,2-1.2C158.7,69.3,159.5,69.1,160.2,69.1z M171.3,81.7c-1,0-1.8-0.1-2.4-0.4c-0.7-0.2-1.2-0.5-1.6-0.7l0.2-2.1
		c0.4,0.2,0.9,0.6,1.5,0.9c0.7,0.2,1.5,0.4,2.2,0.4s1.3-0.1,1.7-0.4c0.4-0.2,0.6-0.6,0.6-1.1c0-0.6-0.2-1-0.7-1.2
		c-0.5-0.2-1-0.5-1.7-0.7c-0.7-0.2-1.3-0.4-2-0.6c-0.5-0.2-1-0.6-1.3-1c-0.4-0.5-0.5-1.1-0.5-1.8c0-1,0.4-1.8,1.1-2.6
		c0.7-0.7,1.8-1,3.4-1c0.7,0,1.3,0.1,1.8,0.2c0.5,0.1,1,0.4,1.5,0.6l-0.2,2c-0.4-0.4-0.9-0.6-1.3-0.7c-0.5-0.2-1-0.2-1.6-0.2
		c-0.7,0-1.3,0.1-1.7,0.4c-0.4,0.2-0.6,0.6-0.6,1.2c0,0.4,0.1,0.6,0.2,0.9c0.2,0.2,0.5,0.4,0.9,0.5c0.4,0.1,0.9,0.4,1.7,0.6
		c1,0.2,1.7,0.6,2.4,1.2c0.7,0.5,1,1.3,1,2.4c0,1-0.4,1.8-1.1,2.6C174.1,81.4,172.9,81.7,171.3,81.7z"/>
	<path class="st0" d="M82.9,35.3c-0.9,0.6-1.7,1-2.7,1.1l-0.4-3.3c0.6-0.1,1.5-0.6,2.2-1.2c0.9-0.7,1.3-1.3,1.7-2.1h3.1v21.4h-3.9
		C82.9,51.2,82.9,35.3,82.9,35.3z M100.5,51.6c-1.8,0-3.4-0.5-4.8-1.5c-1.3-1-2.4-2.2-3.2-3.9s-1.1-3.7-1.1-5.9s0.4-4,1.1-5.7
		c0.7-1.7,1.8-2.9,3.2-3.9c1.3-1,2.9-1.3,4.6-1.3c1.8,0,3.4,0.5,4.8,1.5c1.3,1,2.4,2.2,3.2,3.8c0.7,1.7,1.1,3.5,1.1,5.7
		s-0.4,4.1-1.1,5.9c-0.7,1.7-1.8,3.1-3.2,3.9C103.8,51,102.4,51.6,100.5,51.6z M100.5,48c1.6,0,2.8-0.6,3.7-2c1-1.2,1.5-3.3,1.5-5.9
		c0-2.4-0.5-4.3-1.5-5.5c-1-1.3-2.2-2-3.7-2s-2.8,0.6-3.7,2c-1,1.2-1.5,3.1-1.5,5.5c0,2.6,0.5,4.5,1.3,5.9
		C97.8,47.4,99.1,48,100.5,48z M122.1,51.6c-1.8,0-3.4-0.5-4.8-1.5c-1.3-1-2.4-2.2-3.2-3.9c-0.7-1.7-1.1-3.7-1.1-5.9s0.4-4,1.1-5.7
		c0.7-1.7,1.8-2.9,3.2-3.9c1.3-1,2.9-1.3,4.8-1.3c1.8,0,3.4,0.5,4.8,1.5s2.4,2.2,3.2,3.8c0.7,1.7,1.1,3.5,1.1,5.7s-0.4,4.1-1.1,5.9
		c-0.7,1.7-1.8,3.1-3.2,3.9C125.5,51.1,124,51.6,122.1,51.6z M122.1,48c1.6,0,2.8-0.6,3.7-2c1-1.2,1.5-3.3,1.5-5.9
		c0-2.4-0.5-4.3-1.5-5.5c-1-1.3-2.2-2-3.7-2c-1.5,0-2.8,0.6-3.7,2c-1,1.2-1.5,3.1-1.5,5.5c0,2.6,0.5,4.5,1.3,5.9
		C119.3,47.4,120.5,48,122.1,48z M138.2,44.1h-4v-2.8h4v-4h3.2v4h4v2.8h-4v4.1h-3.2V44.1z"/>
</g>
</svg>
