<svg width="122" height="54" viewBox="0 0 122 54" fill="none" xmlns="http://www.w3.org/2000/svg">
<path d="M50.9642 15.0666H39.4813V3.06434C39.4813 2.49224 39.0175 2.0285 38.4455 2.0285H13.5547C12.9826 2.0285 12.5189 2.49224 12.5189 3.06434V15.0666H1.03584C0.463734 15.0666 0 15.5304 0 16.1025V48.9357C0 49.5078 0.463734 49.9715 1.03584 49.9715H50.9642C51.5362 49.9715 52 49.5078 52 48.9357V16.1025C52 15.5304 51.5362 15.0666 50.9642 15.0666ZM12.5188 47.8997H2.07167V17.1384H12.5188V47.8997ZM29.8278 47.8997H27.0358V45.0731C27.0358 44.501 26.572 44.0373 26 44.0373C25.4279 44.0373 24.9642 44.501 24.9642 45.0731V47.8997H22.1722V40.1009H29.8278V47.8997ZM37.4095 47.8998H31.8995V39.0652C31.8995 38.4931 31.4356 38.0294 30.8636 38.0294H21.1363C20.5642 38.0294 20.1004 38.4931 20.1004 39.0652V47.8998H14.5905V4.10028H37.4095V47.8998ZM49.9283 47.8997H39.4813V17.1384H49.9283V47.8997Z" fill="white"/>
<path d="M23.6636 16.5718H17.7508C17.1787 16.5718 16.715 17.0356 16.715 17.6077V23.5204C16.715 24.0925 17.1787 24.5563 17.7508 24.5563H23.6636C24.2357 24.5563 24.6994 24.0925 24.6994 23.5204V17.6077C24.6994 17.0356 24.2357 16.5718 23.6636 16.5718ZM22.6276 22.4846H18.7865V18.6435H22.6276V22.4846Z" fill="white"/>
<path d="M34.2492 16.5718H28.3364C27.7644 16.5718 27.3006 17.0356 27.3006 17.6077V23.5204C27.3006 24.0925 27.7644 24.5563 28.3364 24.5563H34.2492C34.8212 24.5563 35.285 24.0925 35.285 23.5204V17.6077C35.2851 17.0356 34.8212 16.5718 34.2492 16.5718ZM33.2134 22.4846H29.3723V18.6435H33.2134V22.4846Z" fill="white"/>
<path d="M47.5285 18.5879H41.8252C41.2532 18.5879 40.7893 19.0516 40.7893 19.6237V25.3269C40.7893 25.899 41.2532 26.3628 41.8252 26.3628H47.5285C48.1005 26.3628 48.5644 25.899 48.5644 25.3269V19.6237C48.5644 19.0516 48.1005 18.5879 47.5285 18.5879ZM46.4927 24.291H42.8611V20.6595H46.4927V24.291Z" fill="white"/>
<path d="M47.5285 28.6854H41.8252C41.2532 28.6854 40.7893 29.1492 40.7893 29.7213V35.4246C40.7893 35.9967 41.2532 36.4604 41.8252 36.4604H47.5285C48.1005 36.4604 48.5644 35.9967 48.5644 35.4246V29.7213C48.5644 29.1493 48.1005 28.6854 47.5285 28.6854ZM46.4927 34.3888H42.8611V30.7572H46.4927V34.3888Z" fill="white"/>
<path d="M47.5285 38.795H41.8252C41.2532 38.795 40.7893 39.2588 40.7893 39.8309V45.5341C40.7893 46.1062 41.2532 46.57 41.8252 46.57H47.5285C48.1005 46.57 48.5644 46.1062 48.5644 45.5341V39.8309C48.5644 39.2588 48.1005 38.795 47.5285 38.795ZM46.4927 44.4982H42.8611V40.8667H46.4927V44.4982Z" fill="white"/>
<path d="M10.1367 18.5879H4.4336C3.8615 18.5879 3.39777 19.0516 3.39777 19.6237V25.3269C3.39777 25.899 3.8615 26.3628 4.4336 26.3628H10.1368C10.7089 26.3628 11.1727 25.899 11.1727 25.3269V19.6237C11.1727 19.0516 10.7088 18.5879 10.1367 18.5879ZM9.10091 24.291H5.46944V20.6595H9.10091V24.291Z" fill="white"/>
<path d="M10.1367 28.6854H4.4336C3.8615 28.6854 3.39777 29.1492 3.39777 29.7213V35.4246C3.39777 35.9967 3.8615 36.4604 4.4336 36.4604H10.1368C10.7089 36.4604 11.1727 35.9967 11.1727 35.4246V29.7213C11.1727 29.1493 10.7088 28.6854 10.1367 28.6854ZM9.10091 34.3888H5.46944V30.7572H9.10091V34.3888Z" fill="white"/>
<path d="M10.1367 38.795H4.4336C3.8615 38.795 3.39777 39.2588 3.39777 39.8309V45.5341C3.39777 46.1062 3.8615 46.57 4.4336 46.57H10.1368C10.7089 46.57 11.1727 46.1062 11.1727 45.5341V39.8309C11.1727 39.2588 10.7088 38.795 10.1367 38.795ZM9.10091 44.4982H5.46944V40.8667H9.10091V44.4982Z" fill="white"/>
<path d="M23.6636 27.0621H17.7508C17.1787 27.0621 16.715 27.5259 16.715 28.098V34.0107C16.715 34.5828 17.1787 35.0466 17.7508 35.0466H23.6636C24.2357 35.0466 24.6994 34.5828 24.6994 34.0107V28.098C24.6994 27.5259 24.2357 27.0621 23.6636 27.0621ZM22.6276 32.9749H18.7865V29.1338H22.6276V32.9749Z" fill="white"/>
<path d="M34.2492 27.0621H28.3364C27.7644 27.0621 27.3006 27.5259 27.3006 28.098V34.0107C27.3006 34.5828 27.7644 35.0466 28.3364 35.0466H34.2492C34.8212 35.0466 35.285 34.5828 35.285 34.0107V28.098C35.2851 27.5259 34.8212 27.0621 34.2492 27.0621ZM33.2134 32.9749H29.3723V29.1338H33.2134V32.9749Z" fill="white"/>
<path d="M26 41.081C25.4279 41.081 24.9642 41.5448 24.9642 42.1169V42.2121C24.9642 42.7842 25.4279 43.248 26 43.248C26.572 43.248 27.0358 42.7842 27.0358 42.2121V42.1169C27.0358 41.5448 26.572 41.081 26 41.081Z" fill="white"/>
<path d="M27.9652 6.62867C27.5563 6.62867 27.1474 6.77543 27.1474 7.12156V9.69088H25.0605V7.12145C25.0605 6.77533 24.6515 6.62857 24.2426 6.62857C23.8335 6.62857 23.4246 6.77533 23.4246 7.12145V13.7915C23.4246 14.127 23.8336 14.2948 24.2426 14.2948C24.6516 14.2948 25.0605 14.127 25.0605 13.7915V10.9494H27.1474V13.7914C27.1474 14.1269 27.5564 14.2947 27.9652 14.2947C28.3742 14.2947 28.7832 14.1269 28.7832 13.7914V7.12145C28.7832 6.77543 28.3742 6.62867 27.9652 6.62867Z" fill="white"/>
<path d="M73.5 12C75.2 12 76.5667 12.5 77.6 13.5C78.65 14.4833 79.175 15.8333 79.175 17.55C79.175 18.7333 78.9083 19.7583 78.375 20.625C77.8583 21.4917 77.1333 22.1583 76.2 22.625C75.2833 23.0917 74.225 23.325 73.025 23.325C71.1917 23.325 69.5917 22.8583 68.225 21.925L68.975 19.025C69.6417 19.4417 70.2917 19.7667 70.925 20C71.5583 20.2167 72.2417 20.325 72.975 20.325C73.925 20.325 74.675 20.075 75.225 19.575C75.7917 19.075 76.075 18.4 76.075 17.55C76.075 16.6333 75.75 15.9167 75.1 15.4C74.4667 14.8833 73.5583 14.625 72.375 14.625C71.4417 14.625 70.35 14.7417 69.1 14.975L70.225 5.5H78.475L78.275 8.6H72.625L72.2 12.075C72.6 12.025 73.0333 12 73.5 12ZM89.3027 13.75C90.2694 14.0667 91.0277 14.5917 91.5777 15.325C92.1444 16.0583 92.4277 16.9583 92.4277 18.025C92.4277 19.7083 91.8611 21.0167 90.7277 21.95C89.6111 22.8833 88.1027 23.35 86.2027 23.35C85.2361 23.35 84.3194 23.2417 83.4527 23.025C82.6027 22.8083 81.8777 22.5417 81.2777 22.225L82.0527 19.525C83.4861 20.2417 84.8694 20.6 86.2027 20.6C87.1361 20.6 87.8694 20.3833 88.4027 19.95C88.9527 19.5167 89.2277 18.875 89.2277 18.025C89.2277 16.2583 88.1527 15.375 86.0027 15.375H84.2277V12.375H85.9777C86.8777 12.375 87.5611 12.175 88.0277 11.775C88.5111 11.3583 88.7527 10.775 88.7527 10.025C88.7527 9.375 88.5277 8.85833 88.0777 8.475C87.6444 8.09167 87.0194 7.9 86.2027 7.9C85.5361 7.9 84.8861 8 84.2527 8.2C83.6361 8.4 82.9944 8.69167 82.3277 9.075L81.8527 6.25C83.2527 5.51667 84.8111 5.15 86.5277 5.15C88.1944 5.15 89.4861 5.56667 90.4027 6.4C91.3361 7.21667 91.8027 8.29167 91.8027 9.625C91.8027 10.575 91.5861 11.4083 91.1527 12.125C90.7194 12.825 90.1027 13.3667 89.3027 13.75ZM98.2543 17.25H94.9043V14.9H98.2543V11.55H100.804V14.9H104.154V17.25H100.804V20.6H98.2543V17.25ZM68.6 34H70.5V39.78H77.62V34H79.52V48H77.62V41.58H70.5V48H68.6V34ZM86.3477 48.2C85.3477 48.2 84.481 47.98 83.7477 47.54C83.0143 47.0867 82.4543 46.4733 82.0677 45.7C81.681 44.9267 81.4877 44.06 81.4877 43.1C81.4877 42.14 81.681 41.2733 82.0677 40.5C82.4543 39.7267 83.0143 39.12 83.7477 38.68C84.481 38.2267 85.3477 38 86.3477 38C87.3343 38 88.1943 38.2267 88.9277 38.68C89.6743 39.12 90.241 39.7267 90.6277 40.5C91.0143 41.2733 91.2077 42.14 91.2077 43.1C91.2077 44.06 91.0143 44.9267 90.6277 45.7C90.241 46.4733 89.6743 47.0867 88.9277 47.54C88.1943 47.98 87.3343 48.2 86.3477 48.2ZM86.3477 46.6C87.3077 46.6 88.0477 46.2933 88.5677 45.68C89.101 45.0667 89.3677 44.2067 89.3677 43.1C89.3677 41.9933 89.101 41.1333 88.5677 40.52C88.0477 39.9067 87.3077 39.6 86.3477 39.6C85.3877 39.6 84.641 39.9067 84.1077 40.52C83.5877 41.1333 83.3277 41.9933 83.3277 43.1C83.3277 44.2067 83.5877 45.0667 84.1077 45.68C84.641 46.2933 85.3877 46.6 86.3477 46.6ZM96.307 48.2C95.4404 48.2 94.7937 47.9733 94.367 47.52C93.9537 47.0667 93.747 46.5133 93.747 45.86V39.6H92.067L92.227 38.2H93.747V35.78L95.547 35.6V38.2H98.127V39.6H95.547V44.76C95.547 45.44 95.587 45.9067 95.667 46.16C95.747 46.4133 95.9137 46.58 96.167 46.66C96.4337 46.7267 96.9137 46.76 97.607 46.76H98.067L97.927 48.2H96.307ZM104.287 48.2C103.167 48.2 102.207 47.9733 101.407 47.52C100.621 47.0533 100.021 46.4267 99.6072 45.64C99.1939 44.8533 98.9872 43.98 98.9872 43.02C98.9872 42.1 99.1739 41.26 99.5472 40.5C99.9339 39.7267 100.487 39.12 101.207 38.68C101.941 38.2267 102.801 38 103.787 38C105.041 38 106.054 38.3667 106.827 39.1C107.614 39.8333 108.007 40.8467 108.007 42.14C108.007 42.4733 107.981 42.7933 107.927 43.1H100.827C100.947 44.3667 101.334 45.2667 101.987 45.8C102.641 46.3333 103.481 46.6 104.507 46.6C105.534 46.6 106.474 46.4067 107.327 46.02L107.567 47.44C106.434 47.9467 105.341 48.2 104.287 48.2ZM106.147 41.86C106.147 41.1533 105.947 40.6 105.547 40.2C105.147 39.8 104.547 39.6 103.747 39.6C102.974 39.6 102.367 39.7933 101.927 40.18C101.487 40.5533 101.174 41.1133 100.987 41.86H106.147ZM112.342 48.2C111.462 48.2 110.815 47.9733 110.402 47.52C110.002 47.0667 109.802 46.5067 109.802 45.84V33H111.602V44.8C111.602 45.3867 111.635 45.8133 111.702 46.08C111.782 46.3467 111.928 46.5267 112.142 46.62C112.355 46.7133 112.702 46.76 113.182 46.76L112.922 48.2H112.342ZM117.328 48.2C116.555 48.2 115.875 48.1133 115.288 47.94C114.715 47.7533 114.275 47.5533 113.968 47.34L114.188 45.6C114.455 45.84 114.861 46.0667 115.408 46.28C115.968 46.4933 116.581 46.6 117.248 46.6C117.875 46.6 118.355 46.4933 118.688 46.28C119.035 46.0667 119.208 45.7667 119.208 45.38C119.208 44.9267 119.021 44.5867 118.648 44.36C118.275 44.12 117.808 43.92 117.248 43.76C116.635 43.6 116.115 43.4333 115.688 43.26C115.275 43.0733 114.915 42.7933 114.608 42.42C114.315 42.0467 114.168 41.5533 114.168 40.94C114.168 40.1 114.468 39.4 115.068 38.84C115.668 38.28 116.595 38 117.848 38C118.421 38 118.908 38.06 119.308 38.18C119.708 38.2867 120.108 38.44 120.508 38.64L120.288 40.28C119.968 40.0133 119.615 39.8067 119.228 39.66C118.841 39.5 118.395 39.42 117.888 39.42C117.301 39.42 116.835 39.5333 116.488 39.76C116.155 39.9733 115.988 40.3 115.988 40.74C115.988 41.0333 116.068 41.2733 116.228 41.46C116.388 41.6333 116.615 41.78 116.908 41.9C117.201 42.02 117.655 42.1733 118.268 42.36C119.028 42.5867 119.681 42.9067 120.228 43.32C120.788 43.7333 121.068 44.3867 121.068 45.28C121.068 46.08 120.781 46.7667 120.208 47.34C119.648 47.9133 118.688 48.2 117.328 48.2Z" fill="white"/>
</svg>
