<?xml version="1.0" encoding="utf-8"?>
<!-- Generator: Adobe Illustrator 24.3.0, SVG Export Plug-In . SVG Version: 6.00 Build 0)  -->
<svg version="1.1" id="Layer_1" xmlns="http://www.w3.org/2000/svg" xmlns:xlink="http://www.w3.org/1999/xlink" x="0px" y="0px"
	 viewBox="0 0 200.1 111" style="enable-background:new 0 0 200.1 111;" xml:space="preserve">
<style type="text/css">
	.st0{fill:#FFFFFF;}
</style>
<g>
	<g>
		<path class="st0" d="M65.9,41H53.5V26.5c0-0.7-0.6-1.2-1.1-1.2h-27c-0.7,0-1.1,0.6-1.1,1.2V41H11.9c-0.7,0-1.1,0.6-1.1,1.2v39.7
			c0,0.7,0.6,1.2,1.1,1.2h54c0.7,0,1.1-0.6,1.1-1.2V42.2C67,41.5,66.5,41,65.9,41z M24.3,80.6H13.1V43.5h11.3V80.6z M43,80.6h-3
			v-3.5c0-0.7-0.6-1.2-1.1-1.2c-0.7,0-1.1,0.6-1.1,1.2v3.5h-3v-9.5H43V80.6z M51.3,80.6h-6V69.9c0-0.7-0.6-1.2-1.1-1.2H33.7
			c-0.7,0-1.1,0.6-1.1,1.2v10.7h-6V27.7h24.7V80.6z M64.8,80.6H53.5V43.5h11.3C64.8,43.5,64.8,80.6,64.8,80.6z"/>
		<path class="st0" d="M36.7,42.9h-5.9c-0.6,0-1,0.4-1,1v5.9c0,0.6,0.4,1,1,1h5.9c0.6,0,1-0.4,1-1v-5.9
			C37.7,43.3,37.2,42.9,36.7,42.9z M35.7,48.9h-3.9V45h3.9V48.9z"/>
		<path class="st0" d="M47.4,42.9h-5.9c-0.6,0-1,0.4-1,1v5.9c0,0.6,0.4,1,1,1h5.9c0.6,0,1-0.4,1-1v-5.9
			C48.4,43.3,47.9,42.9,47.4,42.9z M46.4,48.9h-3.9V45h3.9V48.9z"/>
		<g>
			<path class="st0" d="M62,45.1h-5.8c-0.6,0-1,0.4-1,1v5.8c0,0.6,0.4,1,1,1H62c0.6,0,1-0.4,1-1v-5.8C63.1,45.6,62.6,45.1,62,45.1z
				 M61,50.9h-3.7v-3.7H61V50.9z"/>
			<path class="st0" d="M62,55.3h-5.8c-0.6,0-1,0.4-1,1v5.8c0,0.6,0.4,1,1,1H62c0.6,0,1-0.4,1-1v-5.8C63.1,55.8,62.6,55.3,62,55.3z
				 M61,61h-3.7v-3.7H61V61z"/>
			<path class="st0" d="M62,65.5h-5.8c-0.6,0-1,0.4-1,1v5.8c0,0.6,0.4,1,1,1H62c0.6,0,1-0.4,1-1v-5.8C63.1,65.9,62.6,65.5,62,65.5z
				 M61,71.3h-3.7v-3.7H61V71.3z"/>
		</g>
		<g>
			<path class="st0" d="M21.5,45.1h-5.8c-0.6,0-1,0.4-1,1v5.8c0,0.6,0.4,1,1,1h5.8c0.6,0,1-0.4,1-1v-5.8
				C22.6,45.5,22.1,45.1,21.5,45.1z M20.5,50.9h-3.7v-3.7h3.7V50.9z"/>
			<path class="st0" d="M21.5,55.3h-5.8c-0.6,0-1,0.4-1,1v5.8c0,0.6,0.4,1,1,1h5.8c0.6,0,1-0.4,1-1v-5.8
				C22.6,55.8,22.1,55.3,21.5,55.3z M20.5,61h-3.7v-3.7h3.7V61z"/>
			<path class="st0" d="M21.5,65.5h-5.8c-0.6,0-1,0.4-1,1v5.8c0,0.6,0.4,1,1,1h5.8c0.6,0,1-0.4,1-1v-5.8
				C22.6,65.9,22.1,65.5,21.5,65.5z M20.5,71.3h-3.7v-3.7h3.7V71.3z"/>
		</g>
		<path class="st0" d="M36.7,53.4h-5.9c-0.6,0-1,0.4-1,1v6c0,0.6,0.4,1,1,1h5.9c0.6,0,1-0.4,1-1v-5.9C37.7,53.9,37.2,53.4,36.7,53.4
			z M35.7,59.5h-3.9v-3.9h3.9V59.5z"/>
		<path class="st0" d="M47.4,53.4h-5.9c-0.6,0-1,0.4-1,1v6c0,0.6,0.4,1,1,1h5.9c0.6,0,1-0.4,1-1v-5.9C48.4,53.9,47.9,53.4,47.4,53.4
			z M46.4,59.5h-3.9v-3.9h3.9V59.5z"/>
		<path class="st0" d="M39,64.6c-0.6,0-1,0.4-1,1v0.1c0,0.6,0.4,1,1,1c0.6,0,1-0.4,1-1v-0.1C40.1,65,39.6,64.6,39,64.6z"/>
		<path class="st0" d="M41,32.8c-0.4,0-0.8,0.1-0.8,0.4v2.7h-2.1v-2.6c0-0.3-0.4-0.4-0.8-0.4c-0.4,0-0.8,0.1-0.8,0.4v6.7
			c0,0.3,0.4,0.6,0.8,0.6c0.3,0,0.8-0.2,0.8-0.6v-2.9h2.1v2.9c0,0.3,0.4,0.6,0.8,0.6c0.4,0,0.8-0.2,0.8-0.6v-6.7
			C41.8,33,41.5,32.8,41,32.8z"/>
	</g>
	<path class="st0" d="M98.5,36.9c2.2,0,3.9,0.6,5.2,1.9c1.4,1.3,2,2.9,2,5.1c0,1.5-0.4,2.8-1,3.9s-1.5,1.9-2.8,2.5
		c-1.1,0.6-2.5,0.9-4.1,0.9c-2.3,0-4.3-0.6-6.1-1.8l1-3.7c0.9,0.5,1.6,0.9,2.5,1.3c0.8,0.3,1.6,0.4,2.5,0.4c1.3,0,2.2-0.3,2.8-1
		c0.8-0.6,1-1.5,1-2.5c0-1.1-0.4-2-1.3-2.7c-0.8-0.6-1.9-1-3.4-1c-1.1,0-2.5,0.1-4.2,0.5l1.4-12h10.4l-0.3,3.9h-7.2L96.6,37
		C97.3,36.9,97.8,36.9,98.5,36.9z M118.5,39.5c1.3,0.4,2.2,1,2.9,2c0.8,0.9,1,2,1,3.4c0,2.2-0.8,3.8-2.2,4.9
		c-1.4,1.1-3.3,1.8-5.7,1.8c-1.3,0-2.4-0.1-3.5-0.4c-1-0.3-2-0.6-2.8-1l1-3.4c1.8,0.9,3.5,1.4,5.3,1.4c1.1,0,2.2-0.3,2.8-0.9
		c0.6-0.5,1-1.4,1-2.4c0-2.3-1.4-3.4-4.1-3.4H112v-3.8h2.3c1.1,0,2-0.3,2.7-0.8c0.6-0.5,0.9-1.3,0.9-2.3c0-0.9-0.3-1.5-0.9-1.9
		c-0.5-0.5-1.4-0.8-2.4-0.8c-0.9,0-1.6,0.1-2.4,0.4s-1.6,0.6-2.4,1.1l-0.6-3.5c1.8-0.9,3.8-1.4,6-1.4c2.2,0,3.8,0.5,4.9,1.5
		c1.1,1,1.8,2.4,1.8,4.1c0,1.3-0.3,2.3-0.8,3.2C120.3,38.4,119.5,39,118.5,39.5z M129.6,41.4h-4.3v-2.9h4.3v-4.2h3.2v4.2h4.2v3h-4.2
		v4.2h-3.2V41.4z M91.6,64.7H94v7.4h9v-7.4h2.4v17.7H103v-8.1h-9v8.1h-2.4V64.7z M115.2,82.6c-1.3,0-2.4-0.3-3.3-0.9
		c-0.9-0.6-1.6-1.4-2.2-2.3c-0.5-1-0.8-2-0.8-3.3s0.3-2.3,0.8-3.3c0.5-1,1.1-1.8,2.2-2.3c0.9-0.6,2-0.9,3.3-0.9s2.3,0.3,3.3,0.9
		c0.9,0.5,1.6,1.3,2.2,2.3c0.5,1,0.8,2,0.8,3.3s-0.3,2.3-0.8,3.3c-0.5,1-1.3,1.8-2.2,2.3C117.6,82.4,116.5,82.6,115.2,82.6z
		 M115.2,80.8c1.3,0,2.2-0.4,2.8-1.1s1-1.9,1-3.3s-0.4-2.5-1-3.3s-1.6-1.1-2.8-1.1c-1.1,0-2.2,0.4-2.8,1.1s-1,1.9-1,3.3
		s0.4,2.5,1,3.3C113,80.5,114,80.8,115.2,80.8z M127.9,82.5c-1.1,0-1.9-0.3-2.4-0.9s-0.8-1.3-0.8-2.2v-8h-2.3l0.3-1.8h1.9v-3
		l2.3-0.3v3.3h3.3v1.8h-3.3v6.6c0,0.9,0,1.4,0.1,1.8c0.1,0.4,0.3,0.5,0.6,0.6c0.4,0.1,0.9,0.1,1.8,0.1h0.6l-0.1,1.8h-2V82.5z
		 M138,82.5c-1.4,0-2.7-0.3-3.7-0.9s-1.8-1.4-2.3-2.4c-0.5-1-0.8-2.2-0.8-3.3s0.3-2.3,0.8-3.2c0.5-1,1.1-1.8,2.2-2.3
		c0.9-0.6,2-0.9,3.3-0.9c1.6,0,2.9,0.5,3.8,1.4c1,0.9,1.5,2.2,1.5,3.8c0,0.4,0,0.9-0.1,1.3h-9c0.1,1.6,0.6,2.8,1.5,3.4
		c0.9,0.6,1.9,1,3.2,1c1.3,0,2.5-0.3,3.5-0.8l0.3,1.8C140.8,82.1,139.4,82.5,138,82.5z M140.3,74.9c0-0.9-0.3-1.6-0.8-2.2
		c-0.5-0.5-1.3-0.8-2.3-0.8s-1.8,0.3-2.3,0.8s-1,1.1-1.1,2.2H140.3z M148.1,82.4c-1.1,0-1.9-0.3-2.4-0.9s-0.8-1.3-0.8-2.2V63.1h2.3
		v15c0,0.8,0,1.3,0.1,1.6c0.1,0.4,0.3,0.5,0.5,0.6c0.3,0.1,0.8,0.1,1.3,0.1l-0.4,1.8h-0.6V82.4z M155.5,82.5c-1,0-1.9-0.1-2.5-0.4
		c-0.8-0.3-1.3-0.5-1.6-0.8l0.3-2.3c0.4,0.3,0.9,0.6,1.5,0.9c0.8,0.3,1.5,0.4,2.3,0.4s1.4-0.1,1.8-0.4s0.6-0.6,0.6-1.1
		c0-0.6-0.3-1-0.8-1.3c-0.5-0.3-1-0.5-1.8-0.8c-0.8-0.3-1.4-0.4-2-0.6c-0.5-0.3-1-0.6-1.4-1c-0.4-0.5-0.5-1.1-0.5-1.9
		c0-1,0.4-1.9,1.1-2.7c0.8-0.8,1.9-1,3.5-1c0.8,0,1.4,0.1,1.9,0.3s1,0.4,1.5,0.6l-0.3,2c-0.4-0.4-0.9-0.6-1.4-0.8
		c-0.5-0.3-1-0.3-1.6-0.3c-0.8,0-1.4,0.1-1.8,0.4c-0.4,0.3-0.6,0.6-0.6,1.3c0,0.4,0.1,0.6,0.3,0.9c0.3,0.3,0.5,0.4,0.9,0.5
		c0.4,0.1,0.9,0.4,1.8,0.6c1,0.3,1.8,0.6,2.5,1.3c0.8,0.5,1,1.4,1,2.5c0,1-0.4,1.9-1.1,2.7C158.5,82.1,157.3,82.5,155.5,82.5z"/>
</g>
</svg>
