<?xml version="1.0" encoding="utf-8"?>
<!-- Generator: Adobe Illustrator 24.3.0, SVG Export Plug-In . SVG Version: 6.00 Build 0)  -->
<svg version="1.1" id="Layer_1" xmlns="http://www.w3.org/2000/svg" xmlns:xlink="http://www.w3.org/1999/xlink" x="0px" y="0px"
	 viewBox="0 0 170 111" style="enable-background:new 0 0 170 111;" xml:space="preserve">
<style type="text/css">
	.st0{fill:#FFFFFF;}
</style>
<path class="st0" d="M93.3,34.2L86,51.7h-3.3l6-14.5h-6.9v-3H93.3z M106.9,45v2.6h-2.2v4h-3.1v-4h-8.7l9.6-13.5h2.2V45H106.9z
	 M101.6,45v-5.4L97.8,45H101.6z M129.3,39c1.7,0,2.9,0.5,3.7,1.5c0.8,1,1.2,2.4,1.2,4.2v7h-3.1v-6.7c0-1.2-0.2-2-0.6-2.6
	c-0.4-0.5-1-0.8-1.8-0.8c-0.8,0-1.4,0.3-1.9,0.8c-0.4,0.6-0.6,1.3-0.6,2.4v7h-3.1v-6.7c0-1.2-0.2-2-0.6-2.6c-0.4-0.5-1-0.8-1.8-0.8
	c-1,0-1.8,0.4-2.4,1.1v9.1h-3.1V39.2h2.7l0.1,1c1.1-0.8,2.4-1.2,3.7-1.2c1.6,0,2.8,0.6,3.6,1.7c0.4-0.5,1-1,1.7-1.3
	C127.6,39.1,128.4,39,129.3,39z M143.3,39c1.6,0,2.7,0.5,3.5,1.5c0.8,1,1.2,2.4,1.2,4.2v7h-3.1v-6.7c0-1.2-0.2-2-0.6-2.6
	c-0.4-0.6-1-0.8-1.9-0.8c-0.9,0-1.7,0.4-2.4,1.1v9.1H137V39.2h2.9l0.1,0.9C141,39.3,142.1,39,143.3,39z M85.9,64.4h-4.1v-1.7h10.1
	v1.7h-4.1v12.3h-1.9V64.4z M91.6,66.8h1.5l0.2,1.6c0.5-0.6,1-1.1,1.4-1.4c0.5-0.3,1-0.4,1.5-0.4c0.2,0,0.3,0,0.5,0.1l-0.2,2
	c-0.2,0-0.4-0.1-0.6-0.1c-0.5,0-1,0.1-1.4,0.3c-0.4,0.2-0.8,0.5-1,0.8v6.9h-1.9V66.8z M100.1,76.8c-0.9,0-1.6-0.3-2.2-0.8
	c-0.5-0.5-0.8-1.2-0.8-2c0-1.2,0.6-2.1,1.8-2.7c1.2-0.5,2.5-0.8,4.1-0.8c0-0.9-0.2-1.5-0.5-1.8c-0.3-0.3-0.9-0.5-1.6-0.5
	c-0.4,0-0.8,0.1-1.2,0.2c-0.4,0.1-0.9,0.3-1.3,0.7L98,67.7c0.4-0.3,0.9-0.6,1.5-0.7c0.6-0.2,1.2-0.3,1.8-0.3c0.8,0,1.5,0.1,2,0.4
	c0.5,0.3,0.9,0.8,1.1,1.5c0.2,0.7,0.4,1.6,0.4,2.8v2c0,0.5,0,0.9,0.1,1.2c0.1,0.3,0.2,0.5,0.3,0.6c0.2,0.1,0.4,0.2,0.7,0.2h0.2
	l-0.3,1.4h-0.1c-0.6,0-1-0.1-1.3-0.2c-0.3-0.1-0.6-0.3-0.7-0.5c-0.2-0.2-0.3-0.5-0.5-0.8C102.3,76.4,101.3,76.8,100.1,76.8z
	 M99.7,75.4c0.5,0,0.9-0.1,1.4-0.4c0.5-0.2,0.8-0.6,1.1-1v-2.3c-1.4,0.1-2.5,0.2-3.1,0.6c-0.6,0.3-0.9,0.8-0.9,1.6
	c0,0.5,0.1,0.9,0.4,1.1C98.8,75.3,99.2,75.4,99.7,75.4z M106,66.8h2l2.7,7.8l2.7-7.8h2l-3.7,9.8h-2L106,66.8z M121.5,76.8
	c-1.1,0-2.1-0.2-2.9-0.7c-0.8-0.5-1.4-1.1-1.8-1.9c-0.4-0.8-0.6-1.7-0.6-2.6c0-0.9,0.2-1.8,0.6-2.5c0.4-0.8,0.9-1.4,1.7-1.8
	c0.7-0.5,1.6-0.7,2.6-0.7c1.3,0,2.3,0.4,3,1.1c0.8,0.7,1.2,1.7,1.2,3c0,0.3,0,0.7-0.1,1H118c0.1,1.3,0.5,2.2,1.2,2.7
	c0.7,0.5,1.5,0.8,2.5,0.8c1,0,2-0.2,2.8-0.6l0.2,1.4C123.6,76.6,122.5,76.8,121.5,76.8z M122.5,70.5c0-0.7-0.2-1.3-0.6-1.7
	c-0.4-0.4-1-0.6-1.8-0.6c-0.8,0-1.4,0.2-1.8,0.6c-0.4,0.4-0.8,0.9-0.9,1.7H122.5z M129.5,76.8c-0.9,0-1.5-0.2-1.9-0.7
	c-0.4-0.5-0.6-1-0.6-1.7V61.7h1.8v11.8c0,0.6,0,1,0.1,1.3c0.1,0.3,0.2,0.4,0.4,0.5c0.2,0.1,0.6,0.1,1,0.1l-0.3,1.4H129.5z
	 M136.3,76.8c-1.1,0-2.1-0.2-2.9-0.7c-0.8-0.5-1.4-1.1-1.8-1.9c-0.4-0.8-0.6-1.7-0.6-2.6c0-0.9,0.2-1.8,0.6-2.5
	c0.4-0.8,0.9-1.4,1.7-1.8c0.7-0.5,1.6-0.7,2.6-0.7c1.3,0,2.3,0.4,3,1.1c0.8,0.7,1.2,1.7,1.2,3c0,0.3,0,0.7-0.1,1h-7.1
	c0.1,1.3,0.5,2.2,1.2,2.7c0.7,0.5,1.5,0.8,2.5,0.8c1,0,2-0.2,2.8-0.6l0.2,1.4C138.5,76.6,137.4,76.8,136.3,76.8z M137.4,70.5
	c0-0.7-0.2-1.3-0.6-1.7c-0.4-0.4-1-0.6-1.8-0.6c-0.8,0-1.4,0.2-1.8,0.6c-0.4,0.4-0.8,0.9-0.9,1.7H137.4z M141.9,66.8h1.5l0.2,1.6
	c0.5-0.6,1-1.1,1.4-1.4c0.5-0.3,1-0.4,1.5-0.4c0.2,0,0.3,0,0.5,0.1l-0.2,2c-0.2,0-0.4-0.1-0.6-0.1c-0.5,0-1,0.1-1.4,0.3
	c-0.4,0.2-0.8,0.5-1,0.8v6.9h-1.9V66.8z M151,76.8c-0.8,0-1.5-0.1-2-0.3c-0.6-0.2-1-0.4-1.3-0.6l0.2-1.7c0.3,0.2,0.7,0.5,1.2,0.7
	c0.6,0.2,1.2,0.3,1.8,0.3c0.6,0,1.1-0.1,1.4-0.3c0.3-0.2,0.5-0.5,0.5-0.9c0-0.5-0.2-0.8-0.6-1c-0.4-0.2-0.8-0.4-1.4-0.6
	c-0.6-0.2-1.1-0.3-1.6-0.5c-0.4-0.2-0.8-0.5-1.1-0.8c-0.3-0.4-0.4-0.9-0.4-1.5c0-0.8,0.3-1.5,0.9-2.1c0.6-0.6,1.5-0.8,2.8-0.8
	c0.6,0,1.1,0.1,1.5,0.2c0.4,0.1,0.8,0.3,1.2,0.5l-0.2,1.6c-0.3-0.3-0.7-0.5-1.1-0.6c-0.4-0.2-0.8-0.2-1.3-0.2
	c-0.6,0-1.1,0.1-1.4,0.3c-0.3,0.2-0.5,0.5-0.5,1c0,0.3,0.1,0.5,0.2,0.7c0.2,0.2,0.4,0.3,0.7,0.4c0.3,0.1,0.7,0.3,1.4,0.5
	c0.8,0.2,1.4,0.5,2,1c0.6,0.4,0.8,1.1,0.8,2c0,0.8-0.3,1.5-0.9,2.1C153.3,76.6,152.3,76.8,151,76.8z"/>
<path class="st0" d="M30,60.4c-0.3-0.5-0.9-0.6-1.3-0.3c-4.1,2.5-7.2,6.6-8.3,11.2c-0.1,0.5,0.2,1,0.7,1.2c0.1,0,0.2,0,0.2,0
	c0.4,0,0.8-0.3,0.9-0.7c1-4.2,3.7-7.8,7.4-10.1C30.2,61.4,30.3,60.8,30,60.4z"/>
<path class="st0" d="M37.9,57.5c-1.4,0-2.8,0.2-4.2,0.5c-0.5,0.1-0.8,0.6-0.7,1.2c0.1,0.4,0.5,0.7,0.9,0.7c0.1,0,0.1,0,0.2,0
	c1.2-0.3,2.5-0.4,3.7-0.4c0.5,0,1-0.4,1-1S38.5,57.5,37.9,57.5z"/>
<path class="st0" d="M53.8,60.3c-0.2-0.2-0.3-0.3-0.5-0.5c-2.7-2.7-6.1-4.6-9.8-5.6c3.9-1.9,6.6-5.9,6.6-10.6
	c0-6.5-5.3-11.8-11.8-11.8c-6.5,0-11.8,5.3-11.8,11.8c0,4.6,2.7,8.6,6.6,10.6c-3.7,0.9-7,2.8-9.8,5.6c-4,4-6.2,9.4-6.2,15
	c0,0.5,0.4,0.9,0.9,0.9h28.5c1.7,2,4.3,3.3,7.2,3.3c5.2,0,9.4-4.2,9.4-9.4C63.1,64.6,59,60.4,53.8,60.3z M28.4,43.7
	c0-5.5,4.4-9.9,9.9-9.9c5.5,0,9.9,4.4,9.9,9.9c0,5.5-4.4,9.9-9.9,9.9C32.9,53.6,28.4,49.1,28.4,43.7z M19,73.9
	c0.5-10.2,9-18.4,19.4-18.4c5,0,9.7,1.9,13.1,5.1c-4.1,1-7.1,4.7-7.1,9.1c0,1.5,0.4,2.9,1,4.2L19,73.9L19,73.9z M53.7,77.2
	c-4.2,0-7.5-3.4-7.5-7.5c0-4.2,3.4-7.5,7.5-7.5c4.2,0,7.5,3.4,7.5,7.5C61.2,73.9,57.9,77.2,53.7,77.2z"/>
<path class="st0" d="M58.6,69.8l-3.1-3.1c-0.4-0.4-1-0.4-1.4,0c-0.4,0.4-0.4,1,0,1.4l1.5,1.5h-5.9c-0.5,0-1,0.4-1,1c0,0.5,0.4,1,1,1
	h5.9l-1.4,1.4c-0.4,0.4-0.4,1,0,1.4c0.2,0.2,0.4,0.3,0.7,0.3c0.2,0,0.5-0.1,0.7-0.3l3.1-3.1c0.2-0.2,0.3-0.4,0.3-0.7
	S58.8,70,58.6,69.8z"/>
</svg>
