<svg width="180" height="59" viewBox="0 0 180 59" fill="none" xmlns="http://www.w3.org/2000/svg">
<path d="M11.5582 58.388C11.0931 58.388 10.6393 58.382 10.1778 58.3717C9.22192 58.3592 8.26826 58.2761 7.32466 58.1228C6.44479 57.9712 5.59245 57.6893 4.79574 57.2863C4.00631 56.8867 3.28628 56.3628 2.66325 55.7345C2.03115 55.1137 1.50489 54.3936 1.10532 53.6028C0.701402 52.8069 0.421863 51.9537 0.276445 51.0731C0.119459 50.1269 0.0345462 49.1701 0.0224392 48.2109C0.0126698 47.889 0 46.8173 0 46.8173V11.5545C0 11.5545 0.013433 10.4991 0.0224392 10.1889C0.0340702 9.23139 0.118525 8.27611 0.275072 7.33138C0.420776 6.44833 0.700552 5.59274 1.10471 4.79421C1.50274 4.00395 2.02601 3.2833 2.65424 2.6602C3.28181 2.03117 4.00417 1.50449 4.79498 1.09937C5.58988 0.697751 6.44062 0.417875 7.31871 0.269118C8.26543 0.114364 9.22241 0.0307337 10.1816 0.0189283L11.559 0H168.433L169.827 0.0193863C170.777 0.0306788 171.726 0.113649 172.664 0.267592C173.551 0.418256 174.411 0.700132 175.214 1.10395C176.799 1.92037 178.088 3.21202 178.901 4.79788C179.299 5.59093 179.574 6.43959 179.718 7.31504C179.876 8.26751 179.965 9.23028 179.983 10.1957C179.988 10.628 179.988 11.0923 179.988 11.5545C180 12.127 180 12.6718 180 13.2211V45.1682C180 45.7228 180 46.2639 179.988 46.8095C179.988 47.3059 179.988 47.7606 179.982 48.2287C179.964 49.1769 179.877 50.1225 179.721 51.058C179.578 51.945 179.3 52.8048 178.896 53.6072C178.494 54.3894 177.971 55.1032 177.346 55.7224C176.723 56.3541 176.001 56.8811 175.21 57.2833C174.408 57.6893 173.55 57.9722 172.664 58.1225C171.72 58.2766 170.767 58.3599 169.811 58.3715C169.354 58.3822 168.897 58.3876 168.441 58.3878L166.786 58.3909L11.5582 58.388Z" fill="white"/>
<path d="M36.8243 29.0252C36.8414 27.7003 37.1933 26.4012 37.8474 25.2488C38.5014 24.0965 39.4363 23.1283 40.5651 22.4343C39.848 21.4102 38.902 20.5674 37.8023 19.9728C36.7025 19.3783 35.4792 19.0483 34.2296 19.0092C31.5641 18.7294 28.9799 20.6044 27.6215 20.6044C26.237 20.6044 24.1455 19.037 21.8934 19.0834C20.4367 19.1305 19.017 19.5541 17.7728 20.313C16.5285 21.0718 15.502 22.14 14.7932 23.4136C11.7232 28.7288 14.0132 36.5402 16.954 40.8368C18.4252 42.9406 20.1448 45.2906 22.3948 45.2073C24.5966 45.116 25.4191 43.8032 28.0767 43.8032C30.7098 43.8032 31.4813 45.2073 33.777 45.1543C36.1397 45.116 37.6283 43.0412 39.0479 40.9174C40.1051 39.4183 40.9186 37.7614 41.4582 36.0082C40.0856 35.4277 38.9143 34.456 38.0903 33.2142C37.2662 31.9724 36.8259 30.5155 36.8243 29.0252ZM32.4882 16.1837C33.7764 14.6372 34.4111 12.6495 34.2574 10.6426C32.2893 10.8493 30.4714 11.79 29.1658 13.2771C28.5274 14.0036 28.0385 14.8488 27.727 15.7643C27.4155 16.6799 27.2874 17.6479 27.3502 18.6129C28.3346 18.6231 29.3085 18.4097 30.1986 17.9889C31.0886 17.5681 31.8715 16.9508 32.4883 16.1835L32.4882 16.1837ZM63.2402 40.0926H56.0148L54.2796 45.2161H51.219L58.063 26.2603H61.2426L68.0865 45.2161H64.974L63.2402 40.0926ZM56.763 37.7283H62.4904L59.667 29.4132H59.5879L56.763 37.7283ZM82.8668 38.3068C82.8668 42.6014 80.568 45.3607 77.0993 45.3607C76.2205 45.4066 75.3466 45.2042 74.5776 44.7766C73.8086 44.349 73.1755 43.7134 72.7509 42.9427H72.6853V49.7881H69.8483V31.3958H72.5943V33.6946H72.6465C73.0906 32.9275 73.7344 32.2953 74.5093 31.8651C75.2842 31.4348 76.1612 31.2227 77.047 31.2513C80.5546 31.2513 82.8668 34.024 82.8668 38.3067V38.3068ZM79.9509 38.3068C79.9509 35.5088 78.505 33.6692 76.2988 33.6692C74.1312 33.6692 72.6734 35.5474 72.6734 38.3067C72.6734 41.0914 74.1312 42.9563 76.2988 42.9563C78.505 42.9563 79.9509 41.1302 79.9509 38.3067V38.3068ZM98.0786 38.3068C98.0786 42.6014 95.7792 45.3607 92.3103 45.3607C91.4316 45.4066 90.5577 45.2042 89.7887 44.7766C89.0197 44.349 88.3866 43.7134 87.962 42.9427H87.8963V49.7881H85.0595V31.3958H87.8054V33.6946H87.8576C88.3017 32.9275 88.9455 32.2953 89.7203 31.8651C90.4952 31.4348 91.3723 31.2227 92.2581 31.2513C95.7658 31.2513 98.0786 34.024 98.0786 38.3067V38.3068ZM95.1621 38.3068C95.1621 35.5088 93.716 33.6692 91.5098 33.6692C89.3422 33.6692 87.8844 35.5474 87.8844 38.3067C87.8844 41.0914 89.3422 42.9563 91.5098 42.9563C93.716 42.9563 95.1621 41.1302 95.1621 38.3067V38.3068ZM108.13 39.9346C108.341 41.8144 110.167 43.0487 112.662 43.0487C115.053 43.0487 116.774 41.8144 116.774 40.1194C116.774 38.648 115.736 37.767 113.279 37.1633L110.823 36.5715C107.342 35.7307 105.726 34.1029 105.726 31.4613C105.726 28.1907 108.576 25.9443 112.622 25.9443C116.629 25.9443 119.375 28.1907 119.467 31.4613H116.604C116.432 29.5697 114.868 28.4277 112.583 28.4277C110.298 28.4277 108.734 29.5831 108.734 31.2646C108.734 32.6048 109.733 33.3934 112.176 33.9969L114.265 34.5098C118.154 35.4296 119.768 36.9919 119.768 39.7644C119.768 43.3109 116.945 45.5321 112.452 45.5321C108.248 45.5321 105.41 43.363 105.226 39.9345L108.13 39.9346ZM125.894 28.1253V31.3958H128.522V33.6423H125.894V41.2613C125.894 42.4449 126.42 42.9965 127.575 42.9965C127.887 42.991 128.199 42.9691 128.508 42.9308V45.1641C127.989 45.261 127.461 45.3049 126.933 45.295C124.135 45.295 123.043 44.2442 123.043 41.5639V33.6423H121.034V31.3958H123.043V28.1253H125.894ZM130.042 38.3068C130.042 33.9583 132.603 31.2259 136.597 31.2259C140.604 31.2259 143.153 33.9583 143.153 38.3068C143.153 42.667 140.617 45.3875 136.597 45.3875C132.578 45.3875 130.042 42.667 130.042 38.3068ZM140.263 38.3068C140.263 35.3239 138.896 33.5633 136.597 33.5633C134.298 33.5633 132.931 35.3372 132.931 38.3068C132.931 41.3016 134.298 43.0487 136.597 43.0487C138.896 43.0487 140.263 41.3016 140.263 38.3068ZM145.492 31.3958H148.197V33.7481H148.263C148.446 33.0135 148.877 32.3642 149.482 31.9095C150.087 31.4548 150.831 31.2224 151.587 31.2513C151.914 31.2501 152.24 31.2856 152.559 31.3571V34.0105C152.147 33.8844 151.716 33.8265 151.285 33.8391C150.873 33.8224 150.462 33.895 150.08 34.0521C149.699 34.2091 149.356 34.4469 149.075 34.749C148.794 35.051 148.582 35.4103 148.453 35.8021C148.325 36.1939 148.282 36.609 148.329 37.0188V45.2161H145.492V31.3958ZM165.639 41.1569C165.257 43.6658 162.814 45.3875 159.688 45.3875C155.667 45.3875 153.172 42.6939 153.172 38.3723C153.172 34.0374 155.681 31.2259 159.569 31.2259C163.392 31.2259 165.797 33.8525 165.797 38.0429V39.0148H156.036V39.1862C155.991 39.6949 156.054 40.2073 156.222 40.6894C156.391 41.1715 156.659 41.6124 157.011 41.9826C157.363 42.3529 157.789 42.6441 158.262 42.8369C158.735 43.0297 159.243 43.1197 159.754 43.1009C160.424 43.1637 161.097 43.0084 161.672 42.6582C162.247 42.3079 162.693 41.7814 162.945 41.1569H165.639ZM156.049 37.0322H162.959C162.984 36.5749 162.915 36.1172 162.755 35.6879C162.595 35.2587 162.348 34.8671 162.03 34.5377C161.712 34.2083 161.329 33.9483 160.905 33.7739C160.482 33.5996 160.027 33.5147 159.569 33.5245C159.107 33.5217 158.649 33.6105 158.221 33.7857C157.794 33.9608 157.405 34.2189 157.078 34.545C156.751 34.8711 156.491 35.2588 156.315 35.6857C156.138 36.1126 156.048 36.5702 156.049 37.0322ZM56.4083 11.9921C57.003 11.9495 57.5998 12.0393 58.1557 12.2552C58.7115 12.4711 59.2124 12.8077 59.6224 13.2406C60.0324 13.6736 60.3412 14.1921 60.5265 14.7589C60.7118 15.3256 60.769 15.9265 60.694 16.518C60.694 19.4278 59.1213 21.1005 56.4083 21.1005H53.1183V11.992L56.4083 11.9921ZM54.533 19.8123H56.2503C56.6753 19.8377 57.1005 19.768 57.4952 19.6083C57.8898 19.4486 58.2439 19.2029 58.5316 18.8891C58.8193 18.5753 59.0334 18.2013 59.1584 17.7943C59.2834 17.3874 59.316 16.9576 59.2539 16.5365C59.3115 16.1169 59.2756 15.6899 59.1487 15.2859C59.0218 14.8819 58.8072 14.511 58.5201 14.1997C58.233 13.8884 57.8807 13.6444 57.4883 13.4853C57.0958 13.3262 56.6731 13.2558 56.2503 13.2793H54.533V19.8123ZM62.2921 17.6606C62.2489 17.2089 62.3005 16.7531 62.4438 16.3225C62.587 15.8919 62.8187 15.4961 63.1239 15.1603C63.4291 14.8245 63.8011 14.5561 64.2161 14.3725C64.631 14.1889 65.0798 14.0941 65.5336 14.0941C65.9874 14.0941 66.4361 14.1889 66.8511 14.3725C67.2661 14.5561 67.6381 14.8245 67.9433 15.1603C68.2485 15.4961 68.4801 15.8919 68.6234 16.3225C68.7666 16.7531 68.8183 17.2089 68.7751 17.6606C68.8192 18.1128 68.7683 18.5693 68.6255 19.0007C68.4826 19.432 68.2512 19.8287 67.9459 20.1653C67.6406 20.5019 67.2682 20.7708 66.8528 20.9549C66.4373 21.1389 65.988 21.234 65.5336 21.234C65.0792 21.234 64.6298 21.1389 64.2144 20.9549C63.7989 20.7708 63.4266 20.5019 63.1213 20.1653C62.816 19.8287 62.5845 19.432 62.4417 19.0007C62.2989 18.5693 62.2479 18.1128 62.2921 17.6606ZM67.3799 17.6606C67.3799 16.1706 66.7105 15.2993 65.5359 15.2993C64.3567 15.2993 63.6934 16.1706 63.6934 17.6606C63.6934 19.1625 64.3568 20.0271 65.5359 20.0271C66.7105 20.0271 67.3799 19.1565 67.3799 17.6606ZM77.3929 21.1003H75.9855L74.565 16.0379H74.4577L73.0431 21.1003H71.6493L69.7546 14.2266H71.1304L72.3618 19.4716H72.4632L73.8764 14.2266H75.1777L76.5909 19.4716H76.6982L77.9236 14.2266H79.2801L77.3929 21.1003ZM80.8736 14.2268H82.1795V15.3186H82.2809C82.4528 14.9264 82.7429 14.5976 83.1106 14.3781C83.4783 14.1586 83.9053 14.0592 84.3322 14.0939C84.6666 14.0688 85.0024 14.1192 85.3148 14.2415C85.6271 14.3638 85.9079 14.5547 86.1364 14.8003C86.3648 15.0458 86.5351 15.3396 86.6347 15.6599C86.7342 15.9801 86.7604 16.3187 86.7113 16.6505V21.1002H85.3548V16.9912C85.3548 15.8866 84.8747 15.3373 83.8715 15.3373C83.6444 15.3267 83.4177 15.3654 83.207 15.4506C82.9963 15.5358 82.8065 15.6656 82.6506 15.831C82.4947 15.9965 82.3764 16.1937 82.3039 16.4091C82.2313 16.6245 82.2062 16.8531 82.2302 17.0791V21.1003H80.8736V14.2268ZM88.8728 11.5434H90.2293V21.1003H88.8728V11.5434ZM92.1151 17.6606C92.0719 17.2088 92.1235 16.753 92.2668 16.3223C92.41 15.8917 92.6417 15.4958 92.947 15.1599C93.2522 14.8241 93.6243 14.5557 94.0393 14.3721C94.4544 14.1885 94.9032 14.0936 95.357 14.0936C95.8109 14.0936 96.2597 14.1885 96.6747 14.3721C97.0897 14.5557 97.4618 14.8241 97.7671 15.1599C98.0723 15.4958 98.304 15.8917 98.4473 16.3223C98.5905 16.753 98.6422 17.2088 98.599 17.6606C98.6429 18.1127 98.5917 18.5691 98.4488 19.0003C98.3059 19.4316 98.0743 19.8281 97.769 20.1645C97.4637 20.501 97.0914 20.7698 96.676 20.9537C96.2606 21.1377 95.8113 21.2327 95.357 21.2327C94.9027 21.2327 94.4534 21.1377 94.038 20.9537C93.6227 20.7698 93.2503 20.501 92.945 20.1645C92.6397 19.8281 92.4082 19.4316 92.2652 19.0003C92.1223 18.5691 92.0711 18.1127 92.1151 17.6606ZM97.2028 17.6606C97.2028 16.1706 96.5335 15.2993 95.3588 15.2993C94.1796 15.2993 93.5164 16.1706 93.5164 17.6606C93.5164 19.1625 94.1798 20.0271 95.3588 20.0271C96.5335 20.0271 97.2028 19.1565 97.2028 17.6606ZM100.027 19.1565C100.027 17.9192 100.948 17.2058 102.584 17.1045L104.445 16.9972V16.4038C104.445 15.6778 103.965 15.268 103.038 15.268C102.281 15.268 101.756 15.5459 101.606 16.032H100.292C100.431 14.8512 101.542 14.0941 103.101 14.0941C104.824 14.0941 105.796 14.952 105.796 16.4038V21.1003H104.49V20.1344H104.383C104.165 20.4809 103.859 20.7633 103.496 20.9529C103.134 21.1425 102.727 21.2325 102.318 21.2136C102.03 21.2436 101.738 21.2128 101.462 21.1232C101.186 21.0336 100.932 20.8872 100.716 20.6934C100.5 20.4996 100.327 20.2627 100.209 19.998C100.09 19.7333 100.028 19.4466 100.027 19.1565ZM104.445 18.5691V17.9944L102.767 18.1017C101.82 18.1651 101.391 18.4872 101.391 19.093C101.391 19.7117 101.928 20.0718 102.665 20.0718C102.882 20.0937 103.1 20.0719 103.308 20.0076C103.515 19.9434 103.708 19.838 103.874 19.6978C104.04 19.5576 104.176 19.3854 104.274 19.1915C104.373 18.9976 104.431 18.786 104.445 18.5691ZM107.579 17.6606C107.579 15.4885 108.695 14.1127 110.432 14.1127C110.862 14.0929 111.288 14.1958 111.661 14.4093C112.035 14.6229 112.339 14.9383 112.54 15.3186H112.641V11.5432H113.998V21.1002H112.698V20.0141H112.591C112.375 20.3919 112.059 20.7034 111.679 20.9148C111.298 21.1262 110.867 21.2295 110.432 21.2134C108.683 21.2134 107.579 19.8375 107.579 17.6604V17.6606ZM108.98 17.6606C108.98 19.1184 109.667 19.9958 110.817 19.9958C111.96 19.9958 112.667 19.1058 112.667 17.6664C112.667 16.2339 111.953 15.3313 110.817 15.3313C109.675 15.3313 108.98 16.2145 108.98 17.6606ZM119.61 17.6606C119.567 17.2089 119.619 16.7531 119.762 16.3225C119.905 15.8919 120.137 15.4961 120.442 15.1603C120.747 14.8245 121.119 14.5561 121.534 14.3725C121.949 14.1889 122.398 14.0941 122.852 14.0941C123.306 14.0941 123.754 14.1889 124.169 14.3725C124.584 14.5561 124.956 14.8245 125.262 15.1603C125.567 15.4961 125.798 15.8919 125.942 16.3225C126.085 16.7531 126.137 17.2089 126.093 17.6606C126.137 18.1128 126.086 18.5693 125.944 19.0007C125.801 19.432 125.569 19.8287 125.264 20.1653C124.959 20.5019 124.586 20.7708 124.171 20.9549C123.756 21.1389 123.306 21.234 122.852 21.234C122.397 21.234 121.948 21.1389 121.533 20.9549C121.117 20.7708 120.745 20.5019 120.44 20.1653C120.134 19.8287 119.903 19.432 119.76 19.0007C119.617 18.5693 119.566 18.1128 119.61 17.6606ZM124.698 17.6606C124.698 16.1706 124.029 15.2993 122.854 15.2993C121.675 15.2993 121.012 16.1706 121.012 17.6606C121.012 19.1625 121.675 20.0271 122.854 20.0271C124.029 20.0271 124.698 19.1565 124.698 17.6606ZM127.913 14.2268H129.219V15.3186H129.321C129.493 14.9264 129.783 14.5976 130.15 14.3781C130.518 14.1586 130.945 14.0592 131.372 14.0939C131.706 14.0688 132.042 14.1192 132.355 14.2415C132.667 14.3638 132.948 14.5547 133.176 14.8003C133.405 15.0458 133.575 15.3396 133.675 15.6599C133.774 15.9801 133.8 16.3187 133.751 16.6505V21.1002H132.395V16.9912C132.395 15.8866 131.915 15.3373 130.911 15.3373C130.684 15.3267 130.458 15.3654 130.247 15.4506C130.036 15.5358 129.846 15.6656 129.69 15.831C129.535 15.9965 129.416 16.1937 129.344 16.4091C129.271 16.6245 129.246 16.8531 129.27 17.0791V21.1003H127.914L127.913 14.2268ZM141.416 12.5154V14.258H142.906V15.4006H141.416V18.935C141.416 19.6551 141.713 19.9704 142.388 19.9704C142.561 19.9698 142.734 19.9593 142.905 19.939V21.069C142.662 21.1126 142.415 21.1358 142.168 21.1383C140.659 21.1383 140.058 20.6076 140.058 19.2825V15.4006H138.967V14.2579H140.058V12.5156L141.416 12.5154ZM144.758 11.5434H146.103V15.3313H146.21C146.391 14.9354 146.689 14.6048 147.064 14.3844C147.439 14.1641 147.873 14.0647 148.306 14.0999C148.639 14.0818 148.972 14.1373 149.28 14.2626C149.589 14.3878 149.867 14.5797 150.093 14.8244C150.319 15.0692 150.488 15.3609 150.588 15.6786C150.689 15.9963 150.718 16.3323 150.674 16.6626V21.1003H149.316V16.9972C149.316 15.8992 148.804 15.3432 147.846 15.3432C147.613 15.3241 147.378 15.3562 147.159 15.4372C146.939 15.5182 146.74 15.6461 146.575 15.8121C146.41 15.9781 146.284 16.1781 146.204 16.3981C146.125 16.6181 146.094 16.8528 146.115 17.0858V21.1003H144.758V11.5434ZM158.583 19.2443C158.399 19.8725 158 20.416 157.455 20.7795C156.911 21.1431 156.256 21.3036 155.605 21.233C155.152 21.2449 154.702 21.1582 154.286 20.9788C153.87 20.7994 153.498 20.5316 153.196 20.1941C152.894 19.8565 152.669 19.4573 152.536 19.024C152.404 18.5908 152.368 18.1339 152.43 17.6851C152.369 17.235 152.406 16.7771 152.538 16.3426C152.67 15.908 152.894 15.5069 153.195 15.1663C153.495 14.8258 153.865 14.5538 154.28 14.3688C154.695 14.1838 155.145 14.0901 155.599 14.0939C157.511 14.0939 158.665 15.4006 158.665 17.5591V18.0324H153.812V18.1084C153.79 18.3607 153.822 18.6146 153.905 18.8538C153.987 19.0931 154.119 19.3125 154.291 19.4979C154.464 19.6833 154.673 19.8306 154.905 19.9305C155.138 20.0303 155.389 20.0804 155.642 20.0776C155.967 20.1166 156.295 20.0581 156.587 19.9098C156.878 19.7614 157.118 19.5297 157.277 19.2443H158.583ZM153.812 17.0292H157.283C157.3 16.7985 157.269 16.5668 157.191 16.349C157.114 16.1311 156.991 15.9319 156.832 15.7642C156.672 15.5965 156.48 15.464 156.266 15.3752C156.053 15.2864 155.823 15.2433 155.591 15.2486C155.357 15.2456 155.124 15.2897 154.907 15.3781C154.689 15.4666 154.492 15.5976 154.326 15.7636C154.16 15.9295 154.029 16.127 153.941 16.3444C153.852 16.5617 153.809 16.7946 153.812 17.0292Z" fill="black"/>
</svg>
