<?xml version="1.0" encoding="utf-8"?>
<!-- Generator: Adobe Illustrator 24.3.0, SVG Export Plug-In . SVG Version: 6.00 Build 0)  -->
<svg version="1.1" id="Layer_1" xmlns="http://www.w3.org/2000/svg" xmlns:xlink="http://www.w3.org/1999/xlink" x="0px" y="0px"
	 viewBox="0 0 200.1 111" style="enable-background:new 0 0 200.1 111;" xml:space="preserve">
<style type="text/css">
	.st0{fill:#FFFFFF;}
	.st1{clip-path:url(#SVGID_2_);}
</style>
<g>
	<path class="st0" d="M93,41c2.5,0.8,3.7,2.5,3.7,5.2c0,1.8-0.6,3.1-1.7,4.1c-1.1,1-2.7,1.5-4.7,1.5h-8.2V32.1h7.4
		c3.7,0,5.6,1.6,5.6,4.7C95.2,38.8,94.5,40.1,93,41z M85.8,39.8H89c0.9,0,1.5-0.2,2-0.5c0.4-0.4,0.6-0.9,0.6-1.7
		c0-0.8-0.2-1.4-0.6-1.7c-0.4-0.4-1.1-0.5-2-0.5h-3.3V39.8z M89.8,48.5c1,0,1.8-0.2,2.4-0.6c0.6-0.4,0.8-1.1,0.8-2.2
		c0-1-0.3-1.7-0.9-2.1c-0.6-0.4-1.3-0.6-2.4-0.6h-4.1v5.5H89.8z M105.9,52c-1.6,0-3-0.3-4.2-1c-1.1-0.7-2-1.6-2.6-2.7
		c-0.6-1.1-0.8-2.4-0.8-3.7c0-1.3,0.3-2.5,0.8-3.6c0.5-1.1,1.3-1.9,2.4-2.6c1-0.7,2.2-1,3.7-1c1.3,0,2.4,0.3,3.3,0.8
		c0.9,0.5,1.6,1.3,2,2.2c0.5,0.9,0.7,1.9,0.7,3.1c0,0.6-0.1,1.2-0.2,1.9h-9c0.2,1.2,0.7,2.2,1.5,2.8c0.8,0.6,1.7,0.9,2.8,0.9
		c1.5,0,2.9-0.4,4.2-1.1l0.2,2.9c-0.6,0.3-1.3,0.6-2.1,0.8C107.7,51.9,106.9,52,105.9,52z M107.7,43.1c0-0.7-0.2-1.4-0.6-1.9
		c-0.4-0.6-1-0.8-1.9-0.8c-0.9,0-1.5,0.3-2.1,0.8c-0.5,0.5-0.9,1.2-1.1,2H107.7z M117.6,52c-0.9,0-1.7-0.1-2.5-0.3
		c-0.7-0.2-1.5-0.4-2.3-0.8l0.3-3c0.8,0.5,1.5,0.8,2.2,1.1c0.7,0.2,1.4,0.3,2.1,0.3c1.4,0,2.1-0.5,2.1-1.4c0-0.5-0.2-0.9-0.6-1.1
		c-0.4-0.3-1-0.6-2-1c-1.4-0.5-2.4-1.1-3.1-1.7c-0.7-0.7-1-1.5-1-2.6c0-1.2,0.5-2.2,1.4-2.9c0.9-0.8,2.2-1.1,3.8-1.1
		c1.6,0,3,0.4,4.3,1.1l-0.3,3c-0.7-0.5-1.4-0.9-2-1.1c-0.6-0.3-1.3-0.4-2-0.4c-0.6,0-1.1,0.1-1.4,0.4c-0.3,0.2-0.5,0.6-0.5,1
		c0,0.4,0.1,0.6,0.3,0.9c0.2,0.2,0.5,0.4,0.8,0.6c0.4,0.2,0.9,0.4,1.8,0.7c1.4,0.5,2.3,1.1,2.9,1.7c0.6,0.6,0.9,1.4,0.9,2.5
		c0,1.3-0.5,2.4-1.4,3.1C120.7,51.6,119.3,52,117.6,52z M130,52c-1.2,0-2.2-0.4-2.8-1.1c-0.6-0.7-1-1.6-1-2.6v-7.8h-2l0.3-2.9h1.7
		v-3.1l3.5-0.4v3.4h3.1v2.9h-3.1v6.3c0,0.7,0,1.3,0.1,1.6c0.1,0.3,0.3,0.5,0.5,0.6c0.3,0.1,0.8,0.1,1.5,0.1h1l-0.3,2.9H130z
		 M141.9,32.1h7c4.6,0,7,2.1,7,6.3c0,2.2-0.6,3.8-1.8,4.9c-1.2,1.1-2.9,1.6-5.1,1.6h-3.5v6.8h-3.6V32.1z M148.5,41.9
		c1.2,0,2.1-0.3,2.7-0.8c0.6-0.6,0.9-1.4,0.9-2.6c0-1.2-0.3-2-0.9-2.5c-0.6-0.6-1.6-0.8-2.8-0.8h-3v6.8H148.5z M157.8,37.7h3.2
		l0.1,1.5c0.4-0.5,0.9-0.9,1.6-1.2c0.7-0.4,1.3-0.5,2-0.5c0.2,0,0.4,0,0.6,0.1l-0.3,3.4c-0.4-0.1-0.8-0.1-1.2-0.1
		c-0.6,0-1.1,0.1-1.6,0.4c-0.5,0.3-0.8,0.6-1,1v9.5h-3.5V37.7z M167.1,32.1h3.5v3.5h-3.5V32.1z M167.1,37.7h3.5v14h-3.5V37.7z
		 M180.3,52c-1.5,0-2.9-0.3-4-1c-1.1-0.7-1.9-1.5-2.5-2.6c-0.6-1.1-0.8-2.3-0.8-3.7c0-1.4,0.3-2.6,0.8-3.7c0.6-1.1,1.4-2,2.5-2.6
		c1.1-0.7,2.5-1,4.1-1c1.4,0,2.7,0.3,3.8,0.9l-0.3,2.8c-1-0.5-2.1-0.8-3.1-0.8c-1.3,0-2.4,0.4-3.1,1.2c-0.7,0.8-1.1,1.9-1.1,3.2
		c0,1.3,0.4,2.3,1.1,3.2c0.8,0.8,1.8,1.2,3.1,1.2c1.1,0,2.1-0.3,3.2-0.9l0.3,2.9c-0.5,0.3-1.1,0.5-1.8,0.6
		C181.7,51.9,181,52,180.3,52z M193.2,52c-1.6,0-3-0.3-4.2-1c-1.1-0.7-2-1.6-2.6-2.7c-0.6-1.1-0.8-2.4-0.8-3.7
		c0-1.3,0.3-2.5,0.8-3.6c0.5-1.1,1.3-1.9,2.4-2.6c1-0.7,2.3-1,3.7-1c1.3,0,2.4,0.3,3.3,0.8c0.9,0.5,1.6,1.3,2,2.2
		c0.5,0.9,0.7,1.9,0.7,3.1c0,0.6-0.1,1.2-0.2,1.9h-9c0.2,1.2,0.7,2.2,1.5,2.8c0.8,0.6,1.7,0.9,2.8,0.9c1.5,0,2.9-0.4,4.2-1.1
		l0.2,2.9c-0.6,0.3-1.3,0.6-2.1,0.8C195,51.9,194.1,52,193.2,52z M194.9,43.1c0-0.7-0.2-1.4-0.6-1.9c-0.4-0.6-1-0.8-1.9-0.8
		c-0.9,0-1.5,0.3-2.1,0.8c-0.5,0.5-0.9,1.2-1.1,2H194.9z M89.9,79.7c-1.4,0-2.8-0.3-3.9-1c-1.2-0.7-2.1-1.6-2.8-2.9
		c-0.7-1.2-1-2.7-1-4.3s0.3-3.1,1-4.3c0.7-1.2,1.7-2.2,2.9-2.8c1.2-0.7,2.6-1,4.2-1c0.8,0,1.6,0.1,2.3,0.2c0.8,0.2,1.5,0.4,2.1,0.6
		l-0.2,1.9c-1.4-0.6-2.8-0.8-4.1-0.8c-1.3,0-2.4,0.3-3.3,0.8c-0.9,0.5-1.5,1.3-1.9,2.2c-0.4,0.9-0.6,2-0.6,3.2
		c0,1.9,0.5,3.4,1.5,4.5c1,1.1,2.5,1.7,4.5,1.7c0.4,0,0.9,0,1.3-0.1c0.5-0.1,0.9-0.2,1.3-0.3v-3.9h-2.5v-1.9h4.6v7
		c-0.7,0.4-1.4,0.6-2.4,0.9C92,79.6,91,79.7,89.9,79.7z M106.6,68.5v11h-1.8l-0.2-1.2c-0.4,0.5-0.8,0.9-1.3,1.1
		c-0.5,0.2-1.1,0.3-1.8,0.3c-1.3,0-2.3-0.4-3-1.2c-0.7-0.8-1-2-1-3.6v-6.4h2v5.8c0,1.2,0.2,2.1,0.6,2.7c0.4,0.6,1.1,0.9,1.9,0.9
		c0.5,0,1-0.1,1.5-0.3c0.5-0.2,0.8-0.5,1.1-0.9v-8.2H106.6z M111.9,79.7c-1,0-1.8-0.3-2.5-0.9c-0.6-0.6-0.9-1.4-0.9-2.3
		c0-1.4,0.7-2.4,2-3c1.3-0.6,2.8-0.9,4.6-0.9c0-1-0.2-1.7-0.6-2c-0.4-0.4-1-0.5-1.8-0.5c-0.5,0-0.9,0.1-1.4,0.2
		c-0.5,0.1-1,0.4-1.5,0.8l-0.3-1.6c0.4-0.3,1-0.6,1.7-0.8c0.7-0.2,1.3-0.3,2.1-0.3c0.9,0,1.7,0.2,2.2,0.5c0.6,0.3,1,0.9,1.2,1.6
		c0.3,0.8,0.4,1.8,0.4,3.1v2.2c0,0.6,0,1.1,0.1,1.4c0.1,0.3,0.2,0.5,0.4,0.7c0.2,0.2,0.5,0.2,0.8,0.2h0.2l-0.3,1.6h-0.2
		c-0.6,0-1.1-0.1-1.5-0.2c-0.4-0.1-0.6-0.3-0.8-0.5c-0.2-0.2-0.4-0.5-0.5-0.9C114.3,79.2,113.2,79.7,111.9,79.7z M111,78.3
		c0.5,0,1.1-0.1,1.5-0.4c0.5-0.3,0.9-0.6,1.3-1.1v-2.6c-1.6,0.1-2.8,0.3-3.5,0.6c-0.7,0.4-1,0.9-1,1.8c0,0.6,0.1,1,0.4,1.3
		C110,78.2,110.5,78.3,111,78.3z M120.1,68.7h1.7l0.2,1.8c0.6-0.7,1.1-1.2,1.6-1.5c0.5-0.3,1.1-0.5,1.6-0.5c0.2,0,0.4,0,0.5,0.1
		l-0.2,2.2c-0.2,0-0.4-0.1-0.7-0.1c-0.6,0-1.1,0.1-1.6,0.4c-0.5,0.2-0.9,0.5-1.1,0.9v7.8h-2.2V68.7z M129.6,79.7
		c-1,0-1.8-0.3-2.5-0.9c-0.6-0.6-0.9-1.4-0.9-2.3c0-1.4,0.7-2.4,2-3c1.3-0.6,2.8-0.9,4.6-0.9c0-1-0.2-1.7-0.6-2
		c-0.4-0.4-1-0.5-1.8-0.5c-0.5,0-0.9,0.1-1.4,0.2c-0.5,0.1-1,0.4-1.5,0.8l-0.3-1.6c0.4-0.3,1-0.6,1.7-0.8c0.7-0.2,1.3-0.3,2.1-0.3
		c0.9,0,1.7,0.2,2.2,0.5c0.6,0.3,1,0.9,1.2,1.6c0.3,0.8,0.4,1.8,0.4,3.1v2.2c0,0.6,0,1.1,0.1,1.4c0.1,0.3,0.2,0.5,0.4,0.7
		c0.2,0.2,0.5,0.2,0.8,0.2h0.2l-0.3,1.6h-0.2c-0.6,0-1.1-0.1-1.5-0.2c-0.4-0.1-0.6-0.3-0.8-0.5c-0.2-0.2-0.4-0.5-0.5-0.9
		C132,79.2,130.9,79.7,129.6,79.7z M128.7,78.3c0.5,0,1.1-0.1,1.5-0.4c0.5-0.3,0.9-0.6,1.3-1.1v-2.6c-1.6,0.1-2.8,0.3-3.5,0.6
		c-0.7,0.4-1,0.9-1,1.8c0,0.6,0.1,1,0.4,1.3C127.7,78.2,128.1,78.3,128.7,78.3z M143.2,68.5c3,0,4.5,1.7,4.5,5.2v6h-2v-6
		c0-1.2-0.2-2-0.7-2.6c-0.4-0.5-1.2-0.8-2.2-0.8c-0.7,0-1.3,0.1-1.8,0.4c-0.5,0.2-0.9,0.6-1.2,1.1v8h-2v-11h1.6l0.2,1.2
		c0.6-0.5,1.2-0.9,1.7-1.1C141.9,68.6,142.6,68.5,143.2,68.5z M153.9,79.7c-1,0-1.7-0.3-2.2-0.8c-0.5-0.5-0.7-1.1-0.7-1.9v-7h-1.9
		l0.2-1.6h1.7v-2.7l2-0.2v2.9h2.9v1.6h-2.9v5.8c0,0.8,0,1.3,0.1,1.6c0.1,0.3,0.3,0.5,0.6,0.6c0.3,0.1,0.8,0.1,1.6,0.1h0.5l-0.2,1.6
		H153.9z M162.9,79.7c-1.3,0-2.3-0.3-3.2-0.8c-0.9-0.5-1.6-1.2-2-2.1c-0.5-0.9-0.7-1.9-0.7-2.9c0-1,0.2-2,0.6-2.8
		c0.4-0.9,1.1-1.5,1.9-2c0.8-0.5,1.8-0.8,2.9-0.8c1.4,0,2.5,0.4,3.4,1.2c0.9,0.8,1.3,2,1.3,3.4c0,0.4,0,0.7-0.1,1.1h-8
		c0.1,1.4,0.6,2.4,1.3,3c0.7,0.6,1.7,0.9,2.8,0.9c1.2,0,2.2-0.2,3.2-0.6l0.3,1.6C165.3,79.4,164,79.7,162.9,79.7z M163.6,72.8
		c0-0.8-0.2-1.4-0.7-1.9c-0.4-0.4-1.1-0.7-2-0.7c-0.9,0-1.5,0.2-2,0.6c-0.5,0.4-0.8,1-1.1,1.9H163.6z M174.3,79.7
		c-1.3,0-2.3-0.3-3.2-0.8c-0.9-0.5-1.6-1.2-2-2.1c-0.5-0.9-0.7-1.9-0.7-2.9c0-1,0.2-2,0.6-2.8c0.4-0.9,1.1-1.5,1.9-2
		c0.8-0.5,1.8-0.8,2.9-0.8c1.4,0,2.5,0.4,3.4,1.2c0.9,0.8,1.3,2,1.3,3.4c0,0.4,0,0.7-0.1,1.1h-8c0.1,1.4,0.6,2.4,1.3,3
		c0.7,0.6,1.7,0.9,2.8,0.9c1.2,0,2.2-0.2,3.2-0.6l0.3,1.6C176.7,79.4,175.5,79.7,174.3,79.7z M175.1,72.8c0-0.8-0.2-1.4-0.7-1.9
		c-0.4-0.4-1.1-0.7-2-0.7c-0.9,0-1.5,0.2-2,0.6c-0.5,0.4-0.8,1-1.1,1.9H175.1z M190.3,62.7v16.8h-1.8l-0.2-1.3
		c-0.4,0.5-0.9,0.9-1.5,1.2c-0.6,0.3-1.2,0.4-1.9,0.4c-0.9,0-1.8-0.3-2.5-0.8c-0.8-0.5-1.4-1.2-1.8-2.1c-0.4-0.9-0.6-1.8-0.6-2.9
		c0-1,0.2-2,0.6-2.8c0.4-0.9,1-1.6,1.8-2.1c0.8-0.5,1.6-0.8,2.6-0.8c0.7,0,1.3,0.1,1.9,0.4c0.6,0.2,1.1,0.6,1.5,1.1v-7.1H190.3z
		 M183.9,78.1c0.5,0,1.1-0.1,1.5-0.4c0.5-0.3,0.9-0.7,1.2-1.3c0.3-0.6,0.5-1.3,0.5-2.2c0-0.8-0.2-1.5-0.5-2.1
		c-0.3-0.6-0.7-1-1.2-1.3c-0.5-0.3-1-0.5-1.5-0.5c-1,0-1.8,0.4-2.4,1.1c-0.6,0.7-0.9,1.7-0.9,2.8c0,1.1,0.3,2,0.9,2.8
		C182.1,77.8,182.9,78.1,183.9,78.1z"/>
	<g>
		<defs>
			
				<rect id="SVGID_1_" x="12.5" y="24.4" transform="matrix(0.6211 -0.7837 0.7837 0.6211 -25.2729 50.348)" width="53.8" height="53.8"/>
		</defs>
		<clipPath id="SVGID_2_">
			<use xlink:href="#SVGID_1_"  style="overflow:visible;"/>
		</clipPath>
		<g class="st1">
			<path class="st0" d="M60.7,38.1l-5.3-4.2l2.1-2.6l-2.6-2.1l-2.1,2.6l-5.3-4.2l-14.8,1.2l-25,31.6l30.3,24l25-31.6L60.7,38.1z
				 M37.3,79.7L12.3,59.9L34.3,32l12.1-1l4.3,3.4L45,41.6l2.6,2.1l5.7-7.2l4.3,3.4l1.8,12L37.3,79.7L37.3,79.7z"/>
			<path class="st0" d="M38.1,51.1c1.7-2.2,1.3-5.3-0.8-7c-2.2-1.7-5.3-1.3-7,0.8c-1.7,2.2-1.3,5.3,0.8,7
				C33.2,53.6,36.4,53.3,38.1,51.1z M32.9,47c0.6-0.7,1.6-0.8,2.3-0.3c0.7,0.6,0.8,1.6,0.3,2.3c-0.6,0.7-1.6,0.8-2.3,0.3
				C32.4,48.7,32.3,47.7,32.9,47z"/>
			<path class="st0" d="M32.3,62.3c-1.7,2.2-1.3,5.3,0.8,7c2.2,1.7,5.3,1.3,7-0.8c1.7-2.2,1.3-5.3-0.8-7
				C37.1,59.8,34,60.1,32.3,62.3z M37.5,66.4c-0.6,0.7-1.6,0.8-2.3,0.3c-0.7-0.6-0.8-1.6-0.3-2.3c0.6-0.7,1.6-0.8,2.3-0.3
				C37.9,64.7,38.1,65.7,37.5,66.4z"/>
			<path class="st0" d="M24.6,59.6l-0.4-3.3l21.5-2.5l0.4,3.3L24.6,59.6z"/>
		</g>
	</g>
</g>
</svg>
