<svg width="124" height="19" viewBox="0 0 124 19" fill="none" xmlns="http://www.w3.org/2000/svg">
<path d="M14.4811 6.66146C12.2294 4.05458 8.10138 4.75285 8.10138 4.75285C6.17809 -0.833315 3.31662 0.051161 3.31662 0.051161C1.90934 0.190815 1.11188 1.63391 1.11188 1.63391C-1.74959 8.10455 1.81552 14.901 1.81552 14.901C1.81552 14.901 2.14389 15.9717 2.7068 16.9028C4.02026 19.2769 6.08427 18.5786 6.08427 18.5786C8.7112 18.1131 8.33593 18.0665 10.1654 17.5545C10.3061 17.5079 11.1974 17.1355 11.5727 16.9959C12.6516 16.5303 13.6367 15.6459 13.6367 15.6459C18.4214 10.8511 14.4811 6.66146 14.4811 6.66146ZM10.4938 12.7131C9.41484 12.5735 8.66429 11.5959 8.80502 10.5252C8.94575 9.45454 9.93084 8.70972 11.0098 8.84937C12.0887 8.98903 12.8392 9.9666 12.6985 11.0373C12.5578 12.108 11.5727 12.8528 10.4938 12.7131Z" fill="white"/>
<path d="M18.5532 5.19952C18.5532 4.53258 19.0867 3.99902 19.7537 3.99902C20.4206 3.99902 20.9542 4.53258 20.9542 5.19952V8.40084C21.4877 7.60051 22.288 7.06696 23.6219 7.06696C25.6228 7.06696 27.4902 8.66762 27.4902 11.4688C27.4902 14.2699 25.6228 15.8706 23.6219 15.8706C22.288 15.8706 21.6211 15.337 20.9542 14.6701C20.9542 15.337 20.4206 15.8706 19.7537 15.8706C19.0867 15.8706 18.5532 15.0703 18.5532 14.4033V5.19952ZM25.0892 11.3354C25.0892 9.86812 24.1555 8.9344 23.0884 8.9344C22.0213 8.9344 21.0875 9.86812 21.0875 11.202C21.0875 12.6693 22.0213 13.4696 23.0884 13.4696C24.0221 13.7364 25.0892 12.8027 25.0892 11.3354Z" fill="white"/>
<path d="M30.2914 11.3291C30.2914 8.92807 32.2922 6.92725 34.8266 6.92725C37.4944 6.92725 39.3618 8.92807 39.3618 11.3291C39.3618 13.7301 37.361 15.7309 34.8266 15.7309C32.2922 15.7309 30.2914 13.8634 30.2914 11.3291ZM37.0942 11.3291C37.0942 9.99518 36.1605 8.92807 34.8266 8.92807C33.4927 8.92807 32.6924 9.99518 32.6924 11.1957C32.6924 12.3962 33.6261 13.4633 34.96 13.4633C36.2939 13.7301 37.0942 12.663 37.0942 11.3291Z" fill="white"/>
<path d="M42.4297 11.3291C42.4297 8.92807 44.4305 6.92725 46.9649 6.92725C49.6327 6.92725 51.5001 8.92807 51.5001 11.3291C51.5001 13.7301 49.4993 15.7309 46.9649 15.7309C44.2971 15.7309 42.4297 13.8634 42.4297 11.3291ZM49.0991 11.3291C49.0991 9.99518 48.1654 8.92807 46.8315 8.92807C45.4976 8.92807 44.6973 9.99518 44.6973 11.1957C44.6973 12.3962 45.631 13.4633 46.9649 13.4633C48.2988 13.7301 49.0991 12.663 49.0991 11.3291Z" fill="white"/>
<path d="M54.8346 5.19659C54.8346 4.52965 55.3682 3.99609 56.0351 3.99609C56.7021 3.99609 57.2356 4.52965 57.2356 5.19659V10.3987L60.1702 7.59758C60.5703 7.33081 60.8371 7.06403 61.2373 7.06403C61.9042 7.06403 62.3044 7.59758 62.3044 8.13114C62.3044 8.5313 62.0376 8.79808 61.7708 9.19825L59.9034 10.7989L62.171 13.8668C62.4378 14.1336 62.4378 14.4004 62.4378 14.6672C62.4378 15.3341 61.9042 15.7343 61.3707 15.7343C60.8371 15.7343 60.5703 15.6009 60.3036 15.2007L58.1693 12.2662L57.2356 13.0665V14.4004C57.2356 15.0673 56.7021 15.6009 56.0351 15.6009C55.3682 15.6009 54.8346 15.0673 54.8346 14.4004V5.19659Z" fill="white"/>
<path d="M65.6391 5.0632C65.6391 4.39626 66.1726 3.99609 66.973 3.99609C67.7733 3.99609 68.3068 4.39626 68.3068 5.0632C68.3068 5.73014 67.7733 6.2637 66.973 6.2637C66.1726 6.2637 65.6391 5.86353 65.6391 5.0632ZM65.7725 8.26452C65.7725 7.59758 66.306 7.06403 66.973 7.06403C67.6399 7.06403 68.1735 7.59758 68.1735 8.26452V14.5338C68.1735 15.2007 67.6399 15.7343 66.973 15.7343C66.306 15.7343 65.7725 15.2007 65.7725 14.5338V8.26452Z" fill="white"/>
<path d="M72.042 8.26251C72.042 7.59557 72.5755 7.06201 73.2425 7.06201C73.9094 7.06201 74.443 7.59557 74.443 8.26251V8.3959C74.9765 7.72895 75.6435 7.06201 76.9774 7.06201C78.8448 7.06201 79.9119 8.26251 79.9119 10.2633V14.6652C79.9119 15.3321 79.3784 15.8657 78.7114 15.8657C78.0445 15.8657 77.5109 15.3321 77.5109 14.6652V11.0637C77.5109 9.86317 76.9774 9.32962 76.0436 9.32962C75.1099 9.32962 74.5764 9.86317 74.5764 11.0637V14.6652C74.5764 15.3321 74.0428 15.8657 73.3759 15.8657C72.7089 15.8657 72.1754 15.3321 72.1754 14.6652V8.26251H72.042Z" fill="white"/>
<path d="M84.047 17.5997C83.6468 17.4663 83.38 17.0661 83.38 16.666C83.38 16.1324 83.7802 15.7323 84.3138 15.7323C84.4472 15.7323 84.5805 15.7323 84.7139 15.8657C85.3809 16.1324 86.1812 16.3992 86.9815 16.3992C88.5822 16.3992 89.3825 15.5989 89.3825 14.1316V13.7314C88.7156 14.5318 87.9153 15.0653 86.5814 15.0653C84.5805 15.0653 82.8465 13.598 82.8465 11.0637C82.8465 8.52928 84.7139 7.06201 86.5814 7.06201C87.9153 7.06201 88.7156 7.59557 89.2491 8.26251C89.2491 7.59557 89.7827 7.06201 90.4496 7.06201C91.1166 7.06201 91.6501 7.59557 91.6501 8.26251V13.7314C91.6501 15.1987 91.25 16.3992 90.583 17.0661C89.7827 17.8665 88.5822 18.2666 86.9815 18.2666C86.0478 18.1333 85.1141 17.8665 84.047 17.5997ZM89.5159 10.9303C89.5159 9.72978 88.5822 8.92945 87.5151 8.92945C86.3146 8.92945 85.5143 9.72978 85.5143 10.9303C85.5143 12.1308 86.448 12.9311 87.5151 12.9311C88.5822 12.9311 89.5159 12.1308 89.5159 10.9303Z" fill="white"/>
<path d="M96.852 18.1353C96.0516 18.1353 95.5181 17.8685 95.5181 17.2016C95.5181 16.668 95.9182 16.2678 96.4518 16.2678C96.852 16.2678 96.9853 16.0011 96.9853 15.4675V8.26453C96.9853 7.59759 97.5189 7.06403 98.1858 7.06403C98.8528 7.06403 99.3863 7.59759 99.3863 8.26453V15.4675C99.3863 17.335 98.4526 18.1353 96.852 18.1353ZM96.852 5.0632C96.852 4.39626 97.3855 3.99609 98.1858 3.99609C98.9862 3.99609 99.5197 4.39626 99.5197 5.0632C99.5197 5.73014 98.9862 6.2637 98.1858 6.2637C97.5189 6.2637 96.852 5.86353 96.852 5.0632Z" fill="white"/>
<path d="M103.255 5.0632C103.255 4.39626 103.788 3.99609 104.589 3.99609C105.389 3.99609 105.922 4.39626 105.922 5.0632C105.922 5.73014 105.389 6.2637 104.589 6.2637C103.788 6.2637 103.255 5.86353 103.255 5.0632ZM103.388 8.26452C103.388 7.59758 103.922 7.06403 104.589 7.06403C105.256 7.06403 105.789 7.59758 105.789 8.26452V14.5338C105.789 15.2007 105.256 15.7343 104.589 15.7343C103.922 15.7343 103.388 15.2007 103.388 14.5338V8.26452Z" fill="white"/>
<path d="M109.524 8.26251C109.524 7.59557 110.057 7.06201 110.724 7.06201C111.391 7.06201 111.925 7.59557 111.925 8.26251V8.3959C112.458 7.72895 113.125 7.06201 114.459 7.06201C116.327 7.06201 117.394 8.26251 117.394 10.2633V14.6652C117.394 15.3321 116.86 15.8657 116.193 15.8657C115.526 15.8657 114.993 15.3321 114.993 14.6652V11.0637C114.993 9.86317 114.459 9.32962 113.526 9.32962C112.592 9.32962 112.058 9.86317 112.058 11.0637V14.6652C112.058 15.3321 111.525 15.8657 110.858 15.8657C110.191 15.8657 109.657 15.3321 109.657 14.6652V8.26251H109.524Z" fill="white"/>
<path d="M120.862 5.0632C120.862 4.39626 121.396 3.99609 122.196 3.99609C122.997 3.99609 123.53 4.39626 123.53 5.0632C123.53 5.73014 122.997 6.2637 122.196 6.2637C121.529 6.2637 120.862 5.86353 120.862 5.0632ZM121.129 8.26452C121.129 7.59758 121.663 7.06403 122.33 7.06403C122.997 7.06403 123.53 7.59758 123.53 8.26452V14.5338C123.53 15.2007 122.997 15.7343 122.33 15.7343C121.663 15.7343 121.129 15.2007 121.129 14.5338V8.26452Z" fill="white"/>
</svg>
