<svg width="218" height="19" viewBox="0 0 218 19" fill="none" xmlns="http://www.w3.org/2000/svg">
<path fill-rule="evenodd" clip-rule="evenodd" d="M6.9376 14.3876C7.13235 13.5209 7.31346 12.6973 7.50139 11.8757C7.66412 11.1697 7.78643 10.4794 6.84049 10.2211C5.54914 9.86941 4.74965 10.1791 4.46881 11.1298C4.42052 11.2941 4.37432 11.4594 4.32813 11.6248C3.44728 14.7503 3.44728 14.7503 0 14.4164C0.167981 13.7251 0.316014 13.0432 0.501317 12.3723C1.36957 9.22898 2.26564 6.09404 3.11079 2.94493C3.28717 2.28718 3.52024 1.97064 4.27773 2.00214C6.23261 2.0814 8.19851 1.96644 10.146 2.11185C12.7524 2.30818 13.5776 3.62368 12.5413 6.01898C12.093 7.05626 11.1891 7.89721 10.4788 8.84367C11.3849 9.25785 11.3754 10.2206 11.1555 11.2579C10.945 12.2516 10.7429 13.2469 10.5072 14.3876C9.50928 14.3876 8.31137 14.3876 6.9376 14.3876ZM5.50189 7.48093C6.50085 7.42109 7.32291 7.44681 8.11504 7.30403C8.95389 7.15232 9.32188 6.4279 9.16544 5.69561C9.09983 5.388 8.37593 5.1523 7.91241 5.01739C7.53603 4.90663 7.08931 4.93498 6.69613 5.01477C6.45308 5.06359 6.13812 5.27671 6.05203 5.49404C5.83155 6.05257 5.72027 6.6552 5.50189 7.48093Z" fill="white"/>
<path fill-rule="evenodd" clip-rule="evenodd" d="M21.9225 14.4982C22.7383 11.5459 23.522 8.70758 24.3089 5.86924C24.6112 4.77789 24.8921 3.67867 25.248 2.60516C25.3278 2.36422 25.6826 2.0503 25.912 2.04925C27.9367 2.04033 29.9683 2.00673 31.9845 2.15267C34.1504 2.3091 35.056 3.61987 34.678 5.76162C34.1378 8.8236 32.0864 10.5774 28.9693 10.6399C26.6365 10.6877 26.6365 10.6877 26.016 12.8782C25.5567 14.5013 25.5567 14.5008 23.8569 14.4982C23.2475 14.4977 22.6375 14.4982 21.9225 14.4982ZM27.4932 7.74747C28.4601 7.65981 29.2517 7.6661 30.005 7.49917C30.8213 7.31807 31.1483 6.60783 31.1242 5.85034C31.0995 5.05506 30.3798 5.07133 29.8097 5.02566C28.2276 4.89862 28.2244 4.90912 27.8108 6.4451C27.7147 6.801 27.6359 7.16269 27.4932 7.74747Z" fill="white"/>
<path fill-rule="evenodd" clip-rule="evenodd" d="M34.4722 8.10914C34.9127 6.69758 35.7268 5.91489 36.8733 5.48497C38.5657 4.85084 40.3059 4.82144 42.0387 5.28444C43.286 5.61725 43.7852 6.45401 43.4781 7.71124C43.0791 9.3438 42.5867 10.9538 42.1605 12.58C42.0083 13.1654 41.9327 13.7717 41.8004 14.4866C40.7626 14.2767 39.5153 14.9454 38.32 13.9417C37.772 14.1444 36.9998 14.5291 36.1809 14.7124C34.5006 15.0893 33.3268 14.6583 32.9562 13.6604C32.5053 12.4462 33.3126 10.3485 34.6077 9.79157C35.5694 9.37792 36.6418 9.21781 37.6717 8.97057C38.2371 8.83461 38.8639 8.85298 39.3704 8.61046C39.7232 8.44195 39.9201 7.94641 40.1867 7.5968C39.7983 7.44772 39.4172 7.26451 39.0166 7.1632C38.8397 7.1191 38.5405 7.1758 38.435 7.30231C37.3499 8.59838 35.9079 7.87869 34.4722 8.10914ZM39.3694 10.347C38.4292 10.7039 37.6077 10.9517 36.8565 11.3386C36.6198 11.4604 36.4455 11.9706 36.4875 12.2682C36.5116 12.4425 37.0161 12.652 37.3127 12.6667C38.436 12.7218 39.1542 11.9449 39.3694 10.347Z" fill="white"/>
<path fill-rule="evenodd" clip-rule="evenodd" d="M44.5799 5.34297C45.7101 5.34297 46.728 5.34297 47.8629 5.34297C47.8629 7.07002 47.8629 8.7556 47.8629 10.4417C47.9474 10.4669 48.0314 10.4921 48.1159 10.5178C48.739 9.36243 49.4655 8.25113 49.9564 7.0422C50.5312 5.62906 51.4188 5.01383 52.927 5.291C53.2189 5.34454 53.5281 5.29887 53.916 5.29887C53.8556 5.52144 53.8467 5.65478 53.7863 5.75924C51.8955 9.03014 50.023 12.3126 48.0965 15.5625C46.5862 18.1111 45.2314 18.6602 42.1421 18.0591C42.33 17.3683 42.4707 16.6633 42.7306 16.0061C42.8203 15.7793 43.193 15.5609 43.4618 15.5268C44.8183 15.3509 45.1164 15.0638 45.045 13.6696C44.9101 11.0627 44.7369 8.45691 44.5805 5.85058C44.5726 5.71672 44.5799 5.58129 44.5799 5.34297Z" fill="white"/>
<path fill-rule="evenodd" clip-rule="evenodd" d="M17.1939 5.30642C16.8028 6.7479 16.4364 8.09857 16.0695 9.44766C15.9797 9.77995 15.8075 10.1138 15.818 10.4424C15.8332 10.9117 15.9818 11.3758 16.0742 11.8424C16.6317 11.6944 17.2984 11.685 17.7146 11.3574C18.0984 11.0556 18.2763 10.4319 18.4343 9.91644C18.8936 8.40881 19.2984 6.88439 19.7309 5.34054C20.8102 5.34054 21.8333 5.34054 22.9525 5.34054C22.9063 5.63398 22.8895 5.89697 22.8218 6.14527C22.143 8.63138 21.4349 11.1096 20.7834 13.6026C20.6076 14.2755 20.3404 14.602 19.5918 14.5123C18.9535 14.4362 18.2978 14.4965 17.5902 14.4965C17.6254 14.0997 17.6553 13.7742 17.6627 13.6818C16.5629 14.022 15.4353 14.5653 14.2637 14.686C12.7051 14.8461 11.7755 13.7354 12.1041 12.1873C12.5602 10.0387 13.1729 7.92272 13.7624 5.80459C13.8206 5.59619 14.1744 5.34369 14.4044 5.32899C15.2905 5.27387 16.1808 5.30642 17.1939 5.30642Z" fill="white"/>
<path fill-rule="evenodd" clip-rule="evenodd" d="M58.3517 3.41895C59.5192 5.7313 60.6105 7.89143 61.7308 10.1114C59.4363 12.2783 57.1769 14.4143 54.9176 16.5487C54.8562 16.5151 54.7953 16.4805 54.7323 16.4469C54.9192 15.6758 55.1071 14.9051 55.294 14.1345C55.2325 14.0973 55.1722 14.0579 55.1113 14.0201C54.2499 14.8065 53.3884 15.5933 52.3086 16.5797C53.5396 12.1476 54.6924 7.99589 55.9171 3.58325C56.4331 4.57434 56.8441 5.36384 57.4037 6.43682C57.7575 5.30977 58.0263 4.45885 58.3517 3.41895Z" fill="white"/>
<path d="M206.584 4.26928C206.782 4.1104 206.882 4.03096 206.981 3.95152C208.361 2.77977 210.129 2.90886 211.31 4.29907C211.43 4.43809 211.489 4.44802 211.608 4.32886C211.688 4.23949 211.777 4.16998 211.857 4.08061C212.78 3.17697 214.002 2.90886 215.143 3.41529C216.345 3.95152 216.99 4.89487 217 6.21557C217.02 9.0655 217.01 11.9055 217.01 14.7554C217.01 15.7683 216.385 16.4038 215.382 16.4038C214.985 16.4038 214.587 16.374 214.19 16.4138C213.783 16.4535 213.664 16.3244 213.664 15.8974C213.684 13.117 213.674 10.3366 213.674 7.55613C213.674 7.43697 213.674 7.32774 213.674 7.20858C213.664 6.56313 213.406 6.29501 212.79 6.26522C212.234 6.23543 211.847 6.57306 211.787 7.13907C211.777 7.26816 211.787 7.40718 211.787 7.53627C211.787 9.93935 211.787 12.3325 211.787 14.7356C211.787 15.7882 211.181 16.4038 210.129 16.3939C209.593 16.384 208.868 16.6322 208.56 16.2847C208.292 15.9868 208.47 15.2817 208.47 14.7554C208.47 12.2928 208.47 9.82019 208.47 7.35753C208.47 6.48368 207.904 6.03683 207.17 6.33473C206.713 6.5234 206.564 6.89082 206.564 7.36746C206.574 9.67124 206.564 11.9651 206.564 14.2689C206.564 14.4476 206.564 14.6363 206.564 14.815C206.534 15.7782 205.918 16.384 204.965 16.3939C204.568 16.4038 204.171 16.3641 203.774 16.4038C203.347 16.4435 203.217 16.3244 203.227 15.8676C203.247 11.9651 203.237 8.06257 203.237 4.15012C203.237 3.98131 203.247 3.82243 203.237 3.65362C203.217 3.43515 203.307 3.36564 203.525 3.36564C204.439 3.37557 205.343 3.37557 206.256 3.36564C206.484 3.36564 206.594 3.42522 206.574 3.67348C206.554 3.85222 206.574 4.0111 206.584 4.26928Z" fill="white"/>
<path d="M185.532 9.65159C185.532 11.012 185.532 12.3625 185.532 13.7229C185.522 15.4905 184.599 16.404 182.831 16.414C182.057 16.414 181.272 16.4239 180.497 16.414C178.929 16.3941 177.777 15.3514 177.697 13.7825C177.638 12.6604 177.628 11.5284 177.687 10.4063C177.767 8.79761 178.998 7.66558 180.627 7.64572C181.054 7.63579 181.49 7.64572 181.917 7.64572C182.335 7.63579 182.493 7.39746 182.483 7.00026C182.483 6.60306 182.305 6.42432 181.908 6.44418C181.461 6.45411 181.014 6.45411 180.567 6.44418C179.475 6.42432 178.869 5.82851 178.879 4.75607C178.879 4.31914 178.68 3.73327 178.968 3.47509C179.217 3.25663 179.783 3.39565 180.21 3.39565C181.322 3.38572 182.424 3.39565 183.536 3.39565C184.718 3.39565 185.522 4.19998 185.532 5.39159C185.542 6.80166 185.532 8.23159 185.532 9.65159ZM182.493 11.9057C182.493 11.7369 182.493 11.578 182.493 11.4092C182.493 10.3963 182.493 10.3963 181.481 10.4361C180.974 10.4559 180.696 10.7141 180.686 11.2404C180.676 11.6575 180.676 12.0646 180.686 12.4817C180.696 13.1966 181.014 13.3853 182.047 13.4151C182.811 13.4349 182.424 12.8987 182.493 12.6008C182.533 12.3824 182.483 12.1341 182.493 11.9057Z" fill="white"/>
<path d="M194.37 8.56886C194.37 10.0882 194.39 11.6174 194.36 13.1367C194.34 14.3084 194.062 15.371 192.93 15.9966C192.473 16.2448 191.977 16.3838 191.46 16.3938C190.318 16.4136 189.176 16.3938 188.034 16.4136C187.756 16.4136 187.697 16.3143 187.707 16.0661C187.727 15.649 187.697 15.2419 187.717 14.8248C187.737 14.0304 188.342 13.4247 189.137 13.3949C189.653 13.375 190.159 13.3849 190.676 13.3949C191.093 13.3949 191.321 13.2261 191.321 12.7792C191.321 12.3224 191.103 12.1635 190.686 12.1536C189.991 12.1338 189.296 12.2331 188.61 12.0345C187.429 11.6869 186.565 10.7038 186.535 9.48243C186.475 7.54607 186.515 5.6097 186.505 3.67334C186.505 3.45488 186.575 3.38537 186.793 3.3953C187.607 3.40523 188.412 3.41516 189.226 3.3953C189.583 3.38537 189.534 3.58397 189.534 3.80243C189.534 5.26215 189.534 6.71194 189.534 8.17166C189.534 8.80719 189.832 9.14481 190.388 9.16467C191.043 9.18453 191.331 8.91642 191.331 8.2511C191.331 6.78145 191.341 5.30187 191.321 3.83222C191.321 3.48467 191.411 3.38537 191.758 3.3953C192.483 3.42509 193.218 3.43502 193.943 3.3953C194.34 3.37544 194.4 3.52439 194.39 3.87194C194.36 5.43096 194.37 6.99991 194.37 8.56886Z" fill="white"/>
<path d="M169.068 10.8231C169.068 9.20452 169.068 7.57599 169.068 5.95739C169.068 4.36858 170.041 3.37557 171.64 3.39543C172.683 3.40536 173.725 3.27627 174.758 3.47487C176.079 3.73305 176.913 4.75585 176.923 6.11627C176.933 7.55613 176.923 8.99599 176.923 10.4358C176.923 12.2431 175.86 13.3454 174.053 13.395C173.507 13.4149 172.961 13.4049 172.414 13.395C172.166 13.3851 172.057 13.4645 172.067 13.7326C172.087 14.1298 172.077 14.527 172.067 14.9242C172.047 15.7782 171.441 16.3939 170.597 16.4038C170.101 16.4137 169.475 16.6123 169.157 16.3244C168.859 16.0563 169.078 15.4207 169.068 14.9441C169.058 13.5737 169.068 12.1935 169.068 10.8231ZM172.067 8.39025C172.067 8.70801 172.067 9.01585 172.067 9.33361C172.067 10.4557 172.067 10.4557 173.189 10.3564C173.676 10.3167 173.904 10.0784 173.914 9.59179C173.924 9.03571 173.894 8.46969 173.924 7.91361C173.983 6.30494 173.685 6.46382 172.375 6.45389C172.136 6.45389 172.057 6.5234 172.057 6.76172C172.077 7.29795 172.067 7.8441 172.067 8.39025Z" fill="white"/>
<path d="M197.18 10.843C197.18 9.52235 197.17 8.19172 197.19 6.87102C197.19 6.56319 197.12 6.4341 196.783 6.44403C196.336 6.46389 195.74 6.59298 195.492 6.37452C195.184 6.08654 195.422 5.47088 195.383 4.99424C195.383 4.96445 195.383 4.92473 195.383 4.89494C195.383 4.42822 195.234 3.88207 195.432 3.53452C195.631 3.18697 196.237 3.40543 196.664 3.2962C197.508 3.07773 198.143 2.59116 198.66 1.91592C199.017 1.45913 199.464 1.13144 200.04 1.02221C200.348 0.96263 200.536 1.00235 200.516 1.39955C200.487 1.95564 200.516 2.52165 200.507 3.08766C200.497 3.32599 200.586 3.40543 200.824 3.3955C201.222 3.38557 201.619 3.40543 202.016 3.38557C202.254 3.37564 202.334 3.46501 202.324 3.70333C202.314 4.51759 202.314 5.32193 202.324 6.13619C202.324 6.36459 202.264 6.48375 202.016 6.45396C201.966 6.44403 201.917 6.45396 201.867 6.45396C201.43 6.49368 200.824 6.25535 200.596 6.55326C200.377 6.8313 200.516 7.40724 200.516 7.8541C200.516 10.5551 200.507 13.2461 200.526 15.9471C200.526 16.3244 200.427 16.4436 200.05 16.4138C199.692 16.384 199.325 16.4138 198.957 16.4039C197.885 16.3642 197.18 15.6393 197.18 14.5668C197.18 13.3256 197.18 12.0843 197.18 10.843Z" fill="white"/>
<path d="M132.701 9.5949C132.701 9.82066 132.813 9.93353 133.039 9.93353C133.434 9.93353 133.66 9.59488 133.717 9.08691C133.604 9.08691 133.604 9.08691 133.491 9.08691C132.983 9.08691 132.701 9.25625 132.701 9.5949Z" fill="white"/>
<path d="M147.15 9.5949C147.15 9.82066 147.262 9.93353 147.488 9.93353C147.883 9.93353 148.109 9.59488 148.165 9.08691C148.053 9.08691 148.053 9.08691 147.94 9.08691C147.375 9.08691 147.15 9.25625 147.15 9.5949Z" fill="white"/>
<path d="M140.264 7.90234C139.981 7.90234 139.756 8.12809 139.699 8.52318H140.715C140.715 8.4103 140.828 7.90234 140.264 7.90234Z" fill="white"/>
<path d="M152.511 8.01514C152.116 8.01514 151.778 8.52309 151.778 9.20039C151.778 9.65192 151.947 9.87769 152.229 9.87769C152.681 9.87769 152.963 9.36973 152.963 8.69244C153.019 8.24091 152.85 8.01514 152.511 8.01514Z" fill="white"/>
<path d="M146.642 0C144.497 0 142.521 0.79017 140.997 2.14476C139.53 0.79017 137.555 0 135.41 0C130.782 0 127 3.78157 127 8.40975C127 13.0379 130.782 16.8195 135.41 16.8195C137.555 16.8195 139.53 16.0293 140.997 14.6747C142.465 16.0293 144.44 16.8195 146.642 16.8195C151.27 16.8195 155.051 13.0379 155.051 8.40975C155.051 3.78157 151.27 0 146.642 0ZM130.556 10.6674L131.064 7.39378L129.878 10.6674H129.258L129.201 7.39378L128.637 10.6674H127.79L128.524 6.37785H129.822L129.878 9.03059L130.782 6.37785H132.193L131.459 10.6674H130.556ZM133.604 10.6674V10.3287C133.378 10.6109 133.039 10.7238 132.644 10.7238C132.136 10.7238 131.798 10.3287 131.798 9.76432C131.798 8.9177 132.362 8.40975 133.378 8.40975C133.491 8.40975 133.604 8.40975 133.773 8.40975C133.829 8.29687 133.829 8.24042 133.829 8.18397C133.829 7.95821 133.66 7.84534 133.265 7.84534C132.813 7.84534 132.475 7.95822 132.305 8.01466C132.305 7.95822 132.418 7.22447 132.418 7.22447C132.87 7.11158 133.152 7.05515 133.491 7.05515C134.281 7.05515 134.676 7.39379 134.676 8.07108C134.676 8.24041 134.676 8.46618 134.62 8.74839C134.563 9.25636 134.394 10.3287 134.337 10.6109C134.224 10.6674 133.604 10.6674 133.604 10.6674ZM136.313 8.57907C136.764 8.80483 136.934 9.08705 136.934 9.53858C136.934 10.3288 136.482 10.7238 135.523 10.7238C134.958 10.7238 134.789 10.6674 134.563 10.6109C134.563 10.5545 134.676 9.82078 134.676 9.82078C134.958 9.93367 135.24 9.93364 135.523 9.93364C135.861 9.93364 136.031 9.82077 136.031 9.595C136.031 9.42568 135.974 9.36923 135.579 9.19991C135.071 8.97414 134.902 8.69193 134.902 8.2404C134.902 7.61955 135.24 7.05515 136.256 7.05515C136.482 7.05515 136.821 7.11158 137.047 7.11158L136.934 7.90177C136.708 7.84533 136.482 7.84534 136.256 7.84534C135.974 7.84534 135.805 7.95822 135.805 8.12755C135.861 8.35331 135.918 8.40975 136.313 8.57907ZM138.288 9.87721C138.401 9.87721 138.458 9.87722 138.514 9.82078L138.401 10.6109C138.175 10.6674 137.95 10.7238 137.724 10.7238C137.272 10.7238 136.99 10.4416 136.99 9.93364C136.99 9.76431 137.047 9.36924 137.103 9.03059C137.159 8.69195 137.498 6.66005 137.498 6.66005H138.401L138.288 7.16804H138.74L138.627 8.01466H138.175C138.062 8.69195 137.893 9.48212 137.893 9.595C138.006 9.76433 138.119 9.87721 138.288 9.87721ZM140.433 9.93364C140.772 9.93364 141.054 9.87722 141.393 9.70789L141.223 10.5545C140.885 10.6674 140.602 10.6674 140.264 10.6674C139.248 10.6674 138.74 10.1594 138.74 9.14348C138.74 7.95822 139.417 7.05515 140.32 7.05515C141.054 7.05515 141.562 7.56313 141.562 8.29686C141.562 8.57907 141.505 8.80483 141.449 9.14348H139.643C139.586 9.70789 139.925 9.93364 140.433 9.93364ZM142.465 10.6674H141.562L141.618 10.4416C141.788 9.36924 141.957 8.29685 142.07 7.22447H142.916C142.916 7.39379 142.86 7.56313 142.86 7.73245C143.142 7.33736 143.368 7.1116 143.763 7.16804C143.65 7.33736 143.481 7.73244 143.424 8.18397C142.86 8.12753 142.804 8.52263 142.465 10.6674ZM145.964 10.6109C145.626 10.7238 145.4 10.7238 145.174 10.7238C144.215 10.7238 143.594 9.9901 143.594 8.86128C143.594 7.33736 144.44 6.26496 145.682 6.26496C146.077 6.26496 146.529 6.4343 146.698 6.49074L146.529 7.39378C146.19 7.22446 145.964 7.16804 145.738 7.16804C145.061 7.16804 144.553 7.84533 144.553 8.74839C144.553 9.36924 144.892 9.76432 145.4 9.76432C145.626 9.76432 145.851 9.7079 146.19 9.53858L145.964 10.6109ZM148.786 10.6674C148.673 10.6674 148.053 10.6674 148.053 10.6674V10.3287C147.827 10.6109 147.488 10.7238 147.093 10.7238C146.585 10.7238 146.246 10.3287 146.246 9.76432C146.246 8.9177 146.811 8.40975 147.827 8.40975C147.94 8.40975 148.053 8.40975 148.222 8.40975C148.278 8.29687 148.278 8.24042 148.278 8.18397C148.278 7.95821 148.109 7.84534 147.714 7.84534C147.262 7.84534 146.924 7.95822 146.754 8.01466C146.754 7.95822 146.867 7.22447 146.867 7.22447C147.319 7.11158 147.601 7.05515 147.94 7.05515C148.73 7.05515 149.125 7.39379 149.125 8.07108C149.125 8.24041 149.125 8.46618 149.068 8.74839C148.956 9.3128 148.786 10.3852 148.786 10.6674ZM150.028 10.6674H149.125L149.181 10.4416C149.351 9.36924 149.52 8.29685 149.633 7.22447H150.48C150.48 7.39379 150.423 7.56313 150.423 7.73245C150.705 7.33736 150.931 7.1116 151.326 7.16804C151.213 7.33736 151.044 7.73244 150.988 8.18397C150.423 8.12753 150.31 8.52263 150.028 10.6674ZM152.737 10.6674L152.794 10.3287C152.568 10.6109 152.286 10.7238 151.947 10.7238C151.27 10.7238 150.818 10.1594 150.818 9.25637C150.818 8.12755 151.495 7.11158 152.286 7.11158C152.624 7.11158 152.907 7.28093 153.132 7.56313L153.358 6.32142H154.261L153.584 10.6109H152.737V10.6674Z" fill="white"/>
<path fill-rule="evenodd" clip-rule="evenodd" d="M88.8545 2.2272L86.7889 14.9218H90.0937L92.1596 2.2272H88.8545ZM84.0083 2.2272L80.8574 10.9584L80.4847 9.07827L80.4849 9.07888L80.4028 8.65749C80.0214 7.83565 79.1382 6.27365 77.4705 4.94062C76.9775 4.5466 76.4805 4.21033 76 3.92309L78.8637 14.9218H82.307L87.5653 2.2272H84.0083ZM96.9065 5.75146C96.9065 4.31623 100.125 4.50065 101.539 5.27998L102.011 2.55353C102.011 2.55353 100.555 2 99.0384 2C97.3982 2 93.5035 2.71726 93.5035 6.20244C93.5035 9.48241 98.0747 9.52317 98.0747 11.2452C98.0747 12.9672 93.9748 12.6595 92.6218 11.5732L92.1301 14.423C92.1301 14.423 93.6057 15.1402 95.8609 15.1402C98.1159 15.1402 101.519 13.972 101.519 10.7942C101.519 7.49374 96.9065 7.18634 96.9065 5.75146ZM110.393 2.2272H107.735C106.508 2.2272 106.21 3.17326 106.21 3.17326L101.281 14.9218H104.726L105.415 13.0362H109.616L110.004 14.9218H113.038L110.393 2.2272ZM106.367 10.4312L108.104 5.6806L109.081 10.4312H106.367Z" fill="white"/>
</svg>
