<svg width="180" height="59" viewBox="0 0 180 59" fill="none" xmlns="http://www.w3.org/2000/svg">
<path d="M173.333 58.39H6.66668C3.00005 58.39 0 55.1056 0 51.0913V7.29878C0 3.28443 2.99999 0 6.66668 0H173.333C177 0 180 3.28443 180 7.29878V51.0912C180 55.1056 177 58.39 173.333 58.39" fill="white"/>
<path d="M62.7142 14.4451C62.7142 15.6674 62.3845 16.6406 61.7241 17.3666C60.9738 18.23 59.9962 18.662 58.7942 18.662C57.6432 18.662 56.6646 18.2243 55.8598 17.3478C55.0536 16.472 54.6512 15.3859 54.6512 14.0901C54.6512 12.7936 55.0536 11.7082 55.8598 10.8316C56.6646 9.95586 57.6432 9.51758 58.7942 9.51758C59.3654 9.51758 59.9122 9.64018 60.4313 9.88466C60.9505 10.1297 61.3669 10.455 61.6784 10.8624L60.9774 11.6323C60.4495 10.9399 59.7226 10.594 58.7942 10.594C57.9548 10.594 57.229 10.9178 56.6164 11.5657C56.0036 12.2142 55.6974 13.0552 55.6974 14.0901C55.6974 15.125 56.0036 15.9659 56.6164 16.6145C57.229 17.2624 57.9548 17.5861 58.7942 17.5861C59.6847 17.5861 60.4272 17.2606 61.0216 16.6088C61.4074 16.1842 61.6305 15.5939 61.6903 14.836H58.7942V13.7846H62.6586C62.6959 14.0132 62.7141 14.2326 62.7141 14.4451" fill="black"/>
<path d="M62.7143 14.445H62.5813C62.5802 15.6394 62.2624 16.567 61.63 17.2634L61.6286 17.2646L61.628 17.2658C60.9017 18.0993 59.9681 18.5142 58.7942 18.516C57.6739 18.5142 56.7362 18.0948 55.9532 17.2446C55.172 16.3927 54.7856 15.3527 54.7841 14.0899C54.7856 12.8266 55.172 11.7872 55.9532 10.9359C56.7362 10.0851 57.6739 9.6651 58.7942 9.66333C59.3482 9.66333 59.8757 9.782 60.3788 10.0184C60.8824 10.2567 61.2802 10.5689 61.5766 10.9565L61.6784 10.8623L61.5844 10.7592L60.8835 11.5296L60.9774 11.6322L61.0798 11.5388C60.5272 10.8122 59.7517 10.4459 58.7942 10.448C57.9237 10.4469 57.1578 10.7883 56.5244 11.4608C55.8848 12.1354 55.5634 13.0238 55.5645 14.0899C55.5634 15.1562 55.8848 16.0445 56.5244 16.7192C57.1578 17.3916 57.9237 17.733 58.7942 17.7318C59.7142 17.7336 60.4983 17.391 61.1155 16.7118C61.5278 16.2581 61.7615 15.6297 61.8227 14.8484L61.8351 14.69H58.9271V13.9304H62.6586V13.7845L62.5277 13.8101C62.5641 14.0313 62.5813 14.2415 62.5813 14.445H62.8471C62.8471 14.2233 62.8284 13.9954 62.7894 13.7584L62.7697 13.6386H58.6614V14.9817H61.6903V14.8358L61.5579 14.8233C61.4993 15.5573 61.2864 16.1101 60.9276 16.5056C60.3565 17.1301 59.6556 17.4383 58.7942 17.4401C57.9859 17.4389 57.3001 17.1335 56.7088 16.5095C56.1231 15.8878 55.8318 15.094 55.8303 14.0899C55.8318 13.0859 56.1231 12.2921 56.7088 11.6704C57.3001 11.0464 57.9859 10.741 58.7942 10.7398C59.693 10.7422 60.3717 11.0681 60.8758 11.7262L60.9693 11.8482L61.7724 10.9655L61.8586 10.871L61.7801 10.7688C61.4536 10.3416 61.0185 10.0024 60.4837 9.75066C59.948 9.49812 59.3826 9.37158 58.7942 9.37158C57.6127 9.37047 56.593 9.82632 55.7659 10.7285C54.9357 11.6288 54.5173 12.7605 54.5184 14.0899C54.5173 15.4188 54.9357 16.5511 55.7664 17.452C56.593 18.3536 57.6127 18.8089 58.7942 18.8077C60.0248 18.8089 61.0455 18.3603 61.8202 17.4674L61.724 17.3665L61.818 17.4697C62.5065 16.7146 62.848 15.6946 62.8471 14.445H62.7143ZM68.8405 10.7888H65.2088V13.5641H68.4839V14.6158H65.2088V17.391H68.8405V18.4663H64.185V9.71356H68.8405V10.7888Z" fill="black"/>
<path d="M68.8405 10.7885V10.6427H65.0759V13.7096H68.351V14.4692L65.0759 14.4696V17.5366H68.7075V18.3202H64.3179V9.85913H68.7075V10.7885H68.8405V10.6427V10.7885H68.9734V9.56738H64.0521V18.6119H68.9734V17.2449H65.3417V14.7614H68.6168V13.4179H65.3417V10.9344H68.9734V10.7885H68.8405ZM73.1616 18.4661H72.1363V10.7885H69.9089V9.71319H75.389V10.7885H73.1616V18.466" fill="black"/>
<path d="M73.1616 18.4661V18.3202H72.2691V10.6427H70.0419V9.8592H75.2561V10.6427H73.0288V18.466H73.1616V18.3202V18.466H73.2946V10.9344H75.5219V9.56738H69.776V10.9343H72.0033V18.6118H73.2946V18.466H73.1616V18.4661ZM79.354 18.4661V9.71319H80.3783V18.466H79.354" fill="black"/>
<path d="M79.354 18.4661H79.487V9.85913H80.2455V18.3202H79.354V18.466H79.487H79.354V18.6119H80.5113V9.56738H79.2212V18.6119H79.354V18.466V18.4661ZM84.9238 18.4661H83.8984V10.7885H81.6712V9.71319H87.1512V10.7885H84.9238V18.466" fill="black"/>
<path d="M84.9238 18.4665V18.3206H84.0313V10.6431H81.8041V9.85961H87.0182V10.6431H84.7909V18.4664H84.9238V18.3206V18.4664H85.0567V10.9348H87.284V9.5678H81.5383V10.9348H83.7654V18.6123H85.0567V18.4664H84.9238V18.4665ZM92.4343 16.6026C93.0246 17.2584 93.7468 17.586 94.6009 17.586C95.455 17.586 96.1776 17.2584 96.7669 16.6026C97.3578 15.9467 97.6537 15.1083 97.6537 14.0901C97.6537 13.0719 97.3578 12.2335 96.7669 11.5776C96.1776 10.9217 95.455 10.594 94.6009 10.594C93.7468 10.594 93.0246 10.9217 92.4343 11.5776C91.845 12.2335 91.5492 13.0718 91.5492 14.0901C91.5492 15.1083 91.845 15.9467 92.4343 16.6026ZM97.5249 17.3353C96.7409 18.2202 95.7659 18.662 94.6009 18.662C93.4348 18.662 92.4602 18.2202 91.6779 17.3353C90.8934 16.4514 90.503 15.3694 90.503 14.0901C90.503 12.8107 90.8934 11.7285 91.6779 10.8448C92.4603 9.95973 93.4348 9.51758 94.6009 9.51758C95.7598 9.51758 96.7321 9.96209 97.5198 10.8505C98.3063 11.7389 98.6999 12.8187 98.6999 14.0901C98.6999 15.3694 98.3073 16.4514 97.5249 17.3353Z" fill="black"/>
<path d="M92.4344 16.6025L92.3398 16.705C92.952 17.3871 93.7158 17.7336 94.6009 17.7318C95.4856 17.7336 96.2503 17.3871 96.8615 16.705C97.4777 16.0223 97.7876 15.139 97.7867 14.0899C97.7876 13.041 97.4777 12.1576 96.8615 11.4749C96.2503 10.7928 95.4856 10.4463 94.6009 10.448C93.7158 10.4463 92.952 10.7928 92.3398 11.4749C91.7252 12.1576 91.4146 13.041 91.4162 14.0899C91.4146 15.1389 91.7252 16.0223 92.3398 16.705L92.4344 16.6025L92.5289 16.4999C91.9651 15.8701 91.6831 15.078 91.6821 14.0899C91.6831 13.1019 91.9651 12.3098 92.5289 11.68C93.0978 11.0504 93.7774 10.7416 94.6009 10.7399C95.4238 10.7416 96.105 11.0504 96.6725 11.68C97.2374 12.3098 97.5193 13.1019 97.5203 14.0899C97.5193 15.078 97.2374 15.8701 96.6725 16.4999C96.105 17.1295 95.4238 17.4383 94.6009 17.44C93.7774 17.4383 93.0978 17.1295 92.5289 16.4999L92.4344 16.6025ZM97.525 17.3352L97.43 17.2338C96.6678 18.0909 95.7359 18.5143 94.6009 18.516C93.4655 18.5142 92.5335 18.0909 91.7728 17.2338L91.7692 17.2292L91.7728 17.2338C91.0123 16.3739 90.637 15.3368 90.6359 14.0899C90.637 12.8431 91.0123 11.806 91.7728 10.9461C92.5335 10.089 93.4654 9.66511 94.6009 9.6634C95.7286 9.66511 96.6584 10.0908 97.4247 10.9523C98.1879 11.8163 98.5654 12.8517 98.567 14.0899C98.5654 15.3368 98.189 16.3739 97.43 17.2338L97.525 17.3352L97.6206 17.4366C98.4262 16.5283 98.8337 15.4017 98.8328 14.0899C98.8338 12.7857 98.4247 11.6613 97.6152 10.749C96.8054 9.83314 95.7909 9.37001 94.6009 9.37159C93.4048 9.37001 92.3872 9.83098 91.5824 10.7433V10.7427C90.7751 11.6516 90.369 12.7782 90.3701 14.0899C90.369 15.4017 90.7751 16.5283 91.5824 17.4371L91.586 17.4413L91.5824 17.4366C92.3872 18.3489 93.4048 18.8089 94.6009 18.8077C95.7966 18.8089 96.8142 18.3489 97.6206 17.4366L97.525 17.3352ZM100.138 18.4664V9.71349H101.385L105.261 16.5226H105.305L105.261 14.8358V9.71349H106.286V18.4663H105.217L101.162 11.3272H101.118L101.162 13.0146V18.4663H100.138" fill="black"/>
<path d="M100.138 18.4661H100.271V9.85913H101.311L105.187 16.6682H105.441L105.394 14.8334V9.8592H106.153V18.3202H105.29L101.236 11.1811H100.981L101.029 13.0167V18.3202H100.138V18.466H100.271H100.138V18.6119H101.295V13.0121L101.251 11.3231L101.118 11.327V11.4729H101.162V11.327L101.049 11.4046L105.143 18.6119H106.419V9.56738H105.128V14.8372L105.172 16.5263L105.305 16.5223V16.3764H105.261V16.5223L105.374 16.4449L101.459 9.56738H100.005V18.6119H100.138V18.466L100.138 18.4661ZM141.82 43.2656H144.3V25.0289H141.82L141.82 43.2656ZM164.158 31.5982L161.315 39.5047H161.23L158.279 31.5982H155.608L160.033 42.649L157.51 48.796H160.098L166.916 31.5982L164.158 31.5982ZM150.093 41.1943C149.28 41.1943 148.148 40.7486 148.148 39.6455C148.148 38.2379 149.559 37.6983 150.777 37.6983C151.868 37.6983 152.38 37.9563 153.043 38.3087C152.85 39.9976 151.525 41.1943 150.093 41.1943ZM150.393 31.1992C148.597 31.1992 146.737 32.0676 145.968 33.9915L148.169 35.0001C148.639 33.9915 149.515 33.6626 150.435 33.6626C151.718 33.6626 153.022 34.5077 153.043 36.0093V36.1968C152.594 35.9152 151.633 35.493 150.456 35.493C148.084 35.493 145.668 36.9238 145.668 39.5987C145.668 42.0388 147.613 43.6109 149.793 43.6109C151.461 43.6109 152.38 42.7898 152.958 41.828H153.043V43.2355H155.437V36.2434C155.437 33.0062 153.235 31.1992 150.393 31.1992ZM135.065 33.8181H131.538V27.5671H135.065C136.919 27.5671 137.972 29.252 137.972 30.6925C137.972 32.1058 136.919 33.8181 135.065 33.8181ZM135.001 25.0289H129.059V43.2656H131.538V36.3563H135.001C137.75 36.3563 140.452 34.172 140.452 30.6925C140.452 27.2132 137.75 25.0289 135.001 25.0289ZM102.596 41.1977C100.883 41.1977 99.4485 39.6232 99.4485 37.4606C99.4485 35.2754 100.883 33.6769 102.596 33.6769C104.288 33.6769 105.615 35.2753 105.615 37.4606C105.615 39.6232 104.288 41.1977 102.596 41.1977H102.596ZM105.444 32.6193H105.358C104.802 31.8909 103.731 31.2329 102.382 31.2329C99.5555 31.2329 96.9648 33.959 96.9648 37.4606C96.9648 40.939 99.5554 43.6417 102.382 43.6417C103.731 43.6417 104.802 42.9835 105.358 42.2319H105.444V43.1249C105.444 45.4989 104.288 46.7679 102.425 46.7679C100.905 46.7679 99.9625 45.5689 99.5767 44.5586L97.4144 45.5456C98.0354 47.1907 99.6842 49.212 102.425 49.212C105.337 49.212 107.8 47.3314 107.8 42.7488V31.609H105.444V32.6193ZM109.512 43.2656H111.996V25.0283H109.512V43.2656ZM115.658 37.2493C115.594 34.8519 117.349 33.6301 118.613 33.6301C119.598 33.6301 120.433 34.1703 120.711 34.9466L115.658 37.2493ZM123.366 35.1812C122.896 33.7942 121.46 31.2329 118.527 31.2329C115.615 31.2329 113.195 33.7475 113.195 37.4373C113.195 40.9157 115.594 43.6417 118.805 43.6417C121.397 43.6417 122.896 41.9025 123.517 40.8921L121.589 39.4818C120.947 40.5161 120.069 41.1977 118.805 41.1977C117.542 41.1977 116.643 40.5629 116.064 39.3177L123.623 35.8862L123.366 35.1812ZM63.1467 33.1366V35.7687H68.8851C68.7138 37.2493 68.2641 38.3302 67.5788 39.0824C66.744 39.9993 65.4378 41.0096 63.1466 41.0096C59.6135 41.0096 56.8515 37.884 56.8515 34.0062C56.8515 30.1284 59.6135 27.0024 63.1467 27.0024C65.0525 27.0024 66.4439 27.8251 67.4719 28.8827L69.1634 27.0263C67.729 25.5218 65.823 24.3703 63.1467 24.3703C58.3073 24.3703 54.239 28.6947 54.239 34.0062C54.239 39.3177 58.3073 43.6417 63.1467 43.6417C65.7592 43.6417 67.729 42.7021 69.2704 40.939C70.855 39.1998 71.3477 36.7558 71.3477 34.7818C71.3477 34.1703 71.3051 33.6068 71.2189 33.1366H63.1467ZM77.8718 41.1977C76.1584 41.1977 74.6809 39.6465 74.6809 37.4373C74.6809 35.2046 76.1584 33.6769 77.8718 33.6769C79.5845 33.6769 81.062 35.2046 81.062 37.4373C81.062 39.6465 79.5845 41.1977 77.8718 41.1977ZM77.8718 31.2329C74.7452 31.2329 72.197 33.8415 72.197 37.4373C72.197 41.0096 74.7452 43.6417 77.8718 43.6417C80.9977 43.6417 83.5459 41.0096 83.5459 37.4373C83.5459 33.8415 80.9977 31.2329 77.8718 31.2329ZM90.25 41.1977C88.5374 41.1977 87.0596 39.6465 87.0596 37.4373C87.0596 35.2046 88.5374 33.6769 90.2501 33.6769C91.9629 33.6769 93.4405 35.2046 93.4405 37.4373C93.4405 39.6465 91.9629 41.1977 90.2501 41.1977H90.25ZM90.25 31.2329C87.1236 31.2329 84.576 33.8415 84.576 37.4373C84.576 41.0096 87.1236 43.6417 90.2501 43.6417C93.3761 43.6417 95.9244 41.0096 95.9244 37.4373C95.9244 33.8415 93.3761 31.2329 90.2501 31.2329H90.25Z" fill="black"/>
<path d="M13.6569 10.6059C13.2109 11.0476 12.9446 11.7843 12.9446 12.7622V12.5411V44.8114V44.5988C12.9446 45.5019 13.173 46.1994 13.5598 46.6485L13.6585 46.7523V46.7527C13.9715 47.0628 14.3729 47.2274 14.8329 47.2268C15.2824 47.2268 15.7882 47.0696 16.3219 46.7374L35.6143 34.7063L42.241 30.5732C43.0827 30.0485 43.5551 29.3715 43.6341 28.6819V28.6791C43.5551 27.9879 43.0827 27.3114 42.2411 26.7866L35.6137 22.6541L16.322 10.6229C15.7871 10.2902 15.281 10.1323 14.8303 10.1323C14.3708 10.1323 13.9699 10.2964 13.657 10.6059H13.6569Z" fill="#00C1FF"/>
<path d="M13.6585 46.752L13.5598 46.6482C13.173 46.1991 12.9446 45.5016 12.9446 44.5985V44.8111V12.5488V12.7619C12.9446 11.784 13.2109 11.0473 13.6569 10.6056L30.1244 28.6794L13.6585 46.752Z" fill="url(#paint0_linear)"/>
<path d="M35.6142 34.7065L30.1244 28.68L35.6138 22.6544L42.2411 26.7869C43.0827 27.3118 43.5551 27.9882 43.6341 28.6794V28.6821C43.5551 29.3717 43.0827 30.0488 42.2411 30.5735L35.6143 34.7065" fill="url(#paint1_linear)"/>
<path d="M14.8329 47.227C14.373 47.2275 13.9716 47.0628 13.6586 46.7528V46.7524L30.1244 28.6798L35.6143 34.7064L16.3219 46.7376C15.7882 47.0698 15.2824 47.227 14.8329 47.227Z" fill="url(#paint2_linear)"/>
<path d="M30.1244 28.6797L13.6569 10.6059C13.9699 10.2965 14.3708 10.1324 14.8302 10.1324C15.2809 10.1324 15.7871 10.2902 16.3219 10.623L35.6137 22.6541L30.1243 28.6797" fill="url(#paint3_linear)"/>
<path d="M14.8335 47.4404C14.3735 47.4404 13.9716 47.2757 13.6585 46.9658L13.658 46.9663C13.6567 46.9649 13.6553 46.9636 13.6539 46.9624L13.5683 46.8706C13.5656 46.8677 13.563 46.8643 13.5599 46.861L13.6586 46.7526C13.9716 47.0626 14.373 47.2273 14.8331 47.2267C15.2825 47.2267 15.7882 47.0695 16.322 46.7373L35.6143 34.7061L35.7379 34.8419L35.6128 34.9199L16.3219 46.9504C15.8355 47.253 15.3728 47.4108 14.9549 47.4371C14.9145 47.4393 14.874 47.4403 14.8335 47.4404" fill="url(#paint4_linear)"/>
<path d="M13.5598 46.8613C13.173 46.4122 12.9446 45.7153 12.9446 44.8116V44.599C12.9446 45.5022 13.173 46.1996 13.5598 46.6488L13.6585 46.7525L13.5598 46.8613Z" fill="url(#paint5_linear)"/>
<path d="M35.7379 34.8417L35.6143 34.706L42.241 30.573C43.0827 30.0483 43.5551 29.3712 43.6341 28.6817C43.6341 28.9347 43.5827 29.1877 43.4805 29.434C43.2743 29.9303 42.8611 30.3993 42.2411 30.7861L35.7379 34.8418" fill="url(#paint6_linear)"/>
<path d="M43.6341 28.6787C43.5551 27.9875 43.0827 27.3111 42.2411 26.7862L35.6137 22.6537L35.7373 22.518H35.7379L42.2411 26.5736C43.1689 27.1526 43.6336 27.9156 43.6341 28.6787Z" fill="url(#paint7_linear)"/>
<path d="M12.9446 12.7622V12.5393C12.9446 12.4589 12.9466 12.3803 12.9504 12.304V12.3005C12.9504 12.2995 12.9504 12.2984 12.9507 12.2972V12.2886C12.9908 11.5107 13.2109 10.9039 13.5598 10.4987L13.6569 10.6058C13.2109 11.0476 12.9446 11.7843 12.9446 12.7622Z" fill="url(#paint8_linear)"/>
<path d="M35.6137 22.6538L16.3219 10.6225C15.7871 10.2898 15.281 10.132 14.8303 10.132C14.3708 10.132 13.9699 10.2961 13.6569 10.6056L13.5598 10.4984C13.5901 10.4632 13.6217 10.4292 13.6543 10.3965C13.6553 10.3953 13.6569 10.3941 13.658 10.393C13.9685 10.0859 14.3651 9.92182 14.8205 9.91887H14.8303C15.281 9.91887 15.7871 10.0767 16.3219 10.4096L35.7378 22.5176L35.7373 22.5181L35.6137 22.6538Z" fill="url(#paint9_linear)"/>
<defs>
<linearGradient id="paint0_linear" x1="23.4683" y1="12.2079" x2="7.98012" y2="26.3647" gradientUnits="userSpaceOnUse">
<stop stop-color="#00A0FF"/>
<stop offset="0.00657" stop-color="#00A1FF"/>
<stop offset="0.2601" stop-color="#00BEFF"/>
<stop offset="0.5122" stop-color="#00D2FF"/>
<stop offset="0.7604" stop-color="#00DFFF"/>
<stop offset="1" stop-color="#00E3FF"/>
</linearGradient>
<linearGradient id="paint1_linear" x1="44.6595" y1="28.5758" x2="12.499" y2="28.5758" gradientUnits="userSpaceOnUse">
<stop stop-color="#FFE000"/>
<stop offset="0.4087" stop-color="#FFBD00"/>
<stop offset="0.7754" stop-color="#FFA500"/>
<stop offset="1" stop-color="#FF9C00"/>
</linearGradient>
<linearGradient id="paint2_linear" x1="32.6997" y1="34.4096" x2="6.47127" y2="58.2084" gradientUnits="userSpaceOnUse">
<stop stop-color="#FF3A44"/>
<stop offset="1" stop-color="#C31162"/>
</linearGradient>
<linearGradient id="paint3_linear" x1="9.41272" y1="7.92639" x2="21.1038" y2="18.5508" gradientUnits="userSpaceOnUse">
<stop stop-color="#32A071"/>
<stop offset="0.0685" stop-color="#2DA771"/>
<stop offset="0.4762" stop-color="#15CF74"/>
<stop offset="0.8009" stop-color="#06E775"/>
<stop offset="1" stop-color="#00F076"/>
</linearGradient>
<linearGradient id="paint4_linear" x1="32.6877" y1="38.5898" x2="11.6686" y2="57.8023" gradientUnits="userSpaceOnUse">
<stop stop-color="#CC2E36"/>
<stop offset="1" stop-color="#9C0E4E"/>
</linearGradient>
<linearGradient id="paint5_linear" x1="15.1384" y1="12.2083" x2="1.49343" y2="24.6806" gradientUnits="userSpaceOnUse">
<stop stop-color="#008DE0"/>
<stop offset="0.00657" stop-color="#008DE0"/>
<stop offset="0.2601" stop-color="#00A7E0"/>
<stop offset="0.5122" stop-color="#00B8E0"/>
<stop offset="0.7604" stop-color="#00C4E0"/>
<stop offset="1" stop-color="#00C7E0"/>
</linearGradient>
<linearGradient id="paint6_linear" x1="44.6596" y1="28.6803" x2="12.499" y2="28.6803" gradientUnits="userSpaceOnUse">
<stop stop-color="#E0C500"/>
<stop offset="0.4087" stop-color="#E0A600"/>
<stop offset="0.7754" stop-color="#E09100"/>
<stop offset="1" stop-color="#E08900"/>
</linearGradient>
<linearGradient id="paint7_linear" x1="44.6595" y1="28.6801" x2="12.4991" y2="28.6801" gradientUnits="userSpaceOnUse">
<stop stop-color="#FFE840"/>
<stop offset="0.4087" stop-color="#FFCE40"/>
<stop offset="0.7754" stop-color="#FFBC40"/>
<stop offset="1" stop-color="#FFB540"/>
</linearGradient>
<linearGradient id="paint8_linear" x1="15.1248" y1="12.2329" x2="2.0352" y2="23.6791" gradientUnits="userSpaceOnUse">
<stop stop-color="#40B8FF"/>
<stop offset="0.00657" stop-color="#40B9FF"/>
<stop offset="0.2601" stop-color="#40CEFF"/>
<stop offset="0.5122" stop-color="#40DDFF"/>
<stop offset="0.7604" stop-color="#40E7FF"/>
<stop offset="1" stop-color="#40EAFF"/>
</linearGradient>
<linearGradient id="paint9_linear" x1="9.38875" y1="11.7483" x2="18.7747" y2="20.3276" gradientUnits="userSpaceOnUse">
<stop stop-color="#65B895"/>
<stop offset="0.0685" stop-color="#62BD95"/>
<stop offset="0.4762" stop-color="#50DB97"/>
<stop offset="0.8009" stop-color="#44ED98"/>
<stop offset="1" stop-color="#40F498"/>
</linearGradient>
</defs>
</svg>
