<svg width="181" height="181" viewBox="0 0 181 181" fill="none" xmlns="http://www.w3.org/2000/svg">
<path d="M181 0H0V181H181V0Z" fill="white"/>
<path d="M27.4242 21.9395H21.9394V27.4243H27.4242V21.9395Z" fill="black"/>
<path d="M27.4242 27.4243H21.9394V32.9092H27.4242V27.4243Z" fill="black"/>
<path d="M27.4242 32.9092H21.9394V38.394H27.4242V32.9092Z" fill="black"/>
<path d="M27.4242 38.394H21.9394V43.8789H27.4242V38.394Z" fill="black"/>
<path d="M27.4242 43.8789H21.9394V49.3638H27.4242V43.8789Z" fill="black"/>
<path d="M27.4242 49.3638H21.9394V54.8486H27.4242V49.3638Z" fill="black"/>
<path d="M27.4242 54.8486H21.9394V60.3335H27.4242V54.8486Z" fill="black"/>
<path d="M27.4242 65.8184H21.9394V71.3032H27.4242V65.8184Z" fill="black"/>
<path d="M27.4242 71.3032H21.9394V76.7881H27.4242V71.3032Z" fill="black"/>
<path d="M27.4242 76.7881H21.9394V82.2729H27.4242V76.7881Z" fill="black"/>
<path d="M27.4242 82.2729H21.9394V87.7578H27.4242V82.2729Z" fill="black"/>
<path d="M27.4242 87.7578H21.9394V93.2427H27.4242V87.7578Z" fill="black"/>
<path d="M27.4242 93.2422H21.9394V98.727H27.4242V93.2422Z" fill="black"/>
<path d="M27.4242 104.212H21.9394V109.697H27.4242V104.212Z" fill="black"/>
<path d="M27.4242 120.667H21.9394V126.152H27.4242V120.667Z" fill="black"/>
<path d="M27.4242 126.151H21.9394V131.636H27.4242V126.151Z" fill="black"/>
<path d="M27.4242 131.637H21.9394V137.122H27.4242V131.637Z" fill="black"/>
<path d="M27.4242 137.121H21.9394V142.606H27.4242V137.121Z" fill="black"/>
<path d="M27.4242 142.606H21.9394V148.091H27.4242V142.606Z" fill="black"/>
<path d="M27.4242 148.091H21.9394V153.576H27.4242V148.091Z" fill="black"/>
<path d="M27.4242 153.576H21.9394V159.061H27.4242V153.576Z" fill="black"/>
<path d="M32.9091 21.9395H27.4243V27.4243H32.9091V21.9395Z" fill="black"/>
<path d="M32.9091 54.8486H27.4243V60.3335H32.9091V54.8486Z" fill="black"/>
<path d="M32.9091 65.8184H27.4243V71.3032H32.9091V65.8184Z" fill="black"/>
<path d="M32.9091 71.3032H27.4243V76.7881H32.9091V71.3032Z" fill="black"/>
<path d="M32.9091 82.2729H27.4243V87.7578H32.9091V82.2729Z" fill="black"/>
<path d="M32.9091 87.7578H27.4243V93.2427H32.9091V87.7578Z" fill="black"/>
<path d="M32.9091 98.7275H27.4243V104.212H32.9091V98.7275Z" fill="black"/>
<path d="M32.9091 109.697H27.4243V115.182H32.9091V109.697Z" fill="black"/>
<path d="M32.9091 120.667H27.4243V126.152H32.9091V120.667Z" fill="black"/>
<path d="M32.9091 153.576H27.4243V159.061H32.9091V153.576Z" fill="black"/>
<path d="M38.394 21.9395H32.9091V27.4243H38.394V21.9395Z" fill="black"/>
<path d="M38.394 32.9092H32.9091V38.394H38.394V32.9092Z" fill="black"/>
<path d="M38.394 38.394H32.9091V43.8789H38.394V38.394Z" fill="black"/>
<path d="M38.394 43.8789H32.9091V49.3638H38.394V43.8789Z" fill="black"/>
<path d="M38.394 54.8486H32.9091V60.3335H38.394V54.8486Z" fill="black"/>
<path d="M38.394 65.8184H32.9091V71.3032H38.394V65.8184Z" fill="black"/>
<path d="M38.394 71.3032H32.9091V76.7881H38.394V71.3032Z" fill="black"/>
<path d="M38.394 82.2729H32.9091V87.7578H38.394V82.2729Z" fill="black"/>
<path d="M38.394 87.7578H32.9091V93.2427H38.394V87.7578Z" fill="black"/>
<path d="M38.394 104.212H32.9091V109.697H38.394V104.212Z" fill="black"/>
<path d="M38.394 109.697H32.9091V115.182H38.394V109.697Z" fill="black"/>
<path d="M38.394 120.667H32.9091V126.152H38.394V120.667Z" fill="black"/>
<path d="M38.394 131.637H32.9091V137.122H38.394V131.637Z" fill="black"/>
<path d="M38.394 137.121H32.9091V142.606H38.394V137.121Z" fill="black"/>
<path d="M38.394 142.606H32.9091V148.091H38.394V142.606Z" fill="black"/>
<path d="M38.394 153.576H32.9091V159.061H38.394V153.576Z" fill="black"/>
<path d="M43.8788 21.9395H38.3939V27.4243H43.8788V21.9395Z" fill="black"/>
<path d="M43.8788 32.9092H38.3939V38.394H43.8788V32.9092Z" fill="black"/>
<path d="M43.8788 38.394H38.3939V43.8789H43.8788V38.394Z" fill="black"/>
<path d="M43.8788 43.8789H38.3939V49.3638H43.8788V43.8789Z" fill="black"/>
<path d="M43.8788 54.8486H38.3939V60.3335H43.8788V54.8486Z" fill="black"/>
<path d="M43.8788 71.3032H38.3939V76.7881H43.8788V71.3032Z" fill="black"/>
<path d="M43.8788 76.7881H38.3939V82.2729H43.8788V76.7881Z" fill="black"/>
<path d="M43.8788 109.697H38.3939V115.182H43.8788V109.697Z" fill="black"/>
<path d="M43.8788 120.667H38.3939V126.152H43.8788V120.667Z" fill="black"/>
<path d="M43.8788 131.637H38.3939V137.122H43.8788V131.637Z" fill="black"/>
<path d="M43.8788 137.121H38.3939V142.606H43.8788V137.121Z" fill="black"/>
<path d="M43.8788 142.606H38.3939V148.091H43.8788V142.606Z" fill="black"/>
<path d="M43.8788 153.576H38.3939V159.061H43.8788V153.576Z" fill="black"/>
<path d="M49.3636 21.9395H43.8788V27.4243H49.3636V21.9395Z" fill="black"/>
<path d="M49.3636 32.9092H43.8788V38.394H49.3636V32.9092Z" fill="black"/>
<path d="M49.3636 38.394H43.8788V43.8789H49.3636V38.394Z" fill="black"/>
<path d="M49.3636 43.8789H43.8788V49.3638H49.3636V43.8789Z" fill="black"/>
<path d="M49.3636 54.8486H43.8788V60.3335H49.3636V54.8486Z" fill="black"/>
<path d="M49.3636 65.8184H43.8788V71.3032H49.3636V65.8184Z" fill="black"/>
<path d="M49.3636 71.3032H43.8788V76.7881H49.3636V71.3032Z" fill="black"/>
<path d="M49.3636 76.7881H43.8788V82.2729H49.3636V76.7881Z" fill="black"/>
<path d="M49.3636 82.2729H43.8788V87.7578H49.3636V82.2729Z" fill="black"/>
<path d="M49.3636 98.7275H43.8788V104.212H49.3636V98.7275Z" fill="black"/>
<path d="M49.3636 109.697H43.8788V115.182H49.3636V109.697Z" fill="black"/>
<path d="M49.3636 120.667H43.8788V126.152H49.3636V120.667Z" fill="black"/>
<path d="M49.3636 131.637H43.8788V137.122H49.3636V131.637Z" fill="black"/>
<path d="M49.3636 137.121H43.8788V142.606H49.3636V137.121Z" fill="black"/>
<path d="M49.3636 142.606H43.8788V148.091H49.3636V142.606Z" fill="black"/>
<path d="M49.3636 153.576H43.8788V159.061H49.3636V153.576Z" fill="black"/>
<path d="M54.8485 21.9395H49.3636V27.4243H54.8485V21.9395Z" fill="black"/>
<path d="M54.8485 54.8486H49.3636V60.3335H54.8485V54.8486Z" fill="black"/>
<path d="M54.8485 65.8184H49.3636V71.3032H54.8485V65.8184Z" fill="black"/>
<path d="M54.8485 71.3032H49.3636V76.7881H54.8485V71.3032Z" fill="black"/>
<path d="M54.8485 82.2729H49.3636V87.7578H54.8485V82.2729Z" fill="black"/>
<path d="M54.8485 87.7578H49.3636V93.2427H54.8485V87.7578Z" fill="black"/>
<path d="M54.8485 98.7275H49.3636V104.212H54.8485V98.7275Z" fill="black"/>
<path d="M54.8485 120.667H49.3636V126.152H54.8485V120.667Z" fill="black"/>
<path d="M54.8485 153.576H49.3636V159.061H54.8485V153.576Z" fill="black"/>
<path d="M60.3334 21.9395H54.8485V27.4243H60.3334V21.9395Z" fill="black"/>
<path d="M60.3334 27.4243H54.8485V32.9092H60.3334V27.4243Z" fill="black"/>
<path d="M60.3334 32.9092H54.8485V38.394H60.3334V32.9092Z" fill="black"/>
<path d="M60.3334 38.394H54.8485V43.8789H60.3334V38.394Z" fill="black"/>
<path d="M60.3334 43.8789H54.8485V49.3638H60.3334V43.8789Z" fill="black"/>
<path d="M60.3334 49.3638H54.8485V54.8486H60.3334V49.3638Z" fill="black"/>
<path d="M60.3334 54.8486H54.8485V60.3335H60.3334V54.8486Z" fill="black"/>
<path d="M60.3334 65.8184H54.8485V71.3032H60.3334V65.8184Z" fill="black"/>
<path d="M60.3334 76.7881H54.8485V82.2729H60.3334V76.7881Z" fill="black"/>
<path d="M60.3334 87.7578H54.8485V93.2427H60.3334V87.7578Z" fill="black"/>
<path d="M60.3334 98.7275H54.8485V104.212H60.3334V98.7275Z" fill="black"/>
<path d="M60.3334 109.697H54.8485V115.182H60.3334V109.697Z" fill="black"/>
<path d="M60.3334 120.667H54.8485V126.152H60.3334V120.667Z" fill="black"/>
<path d="M60.3334 126.151H54.8485V131.636H60.3334V126.151Z" fill="black"/>
<path d="M60.3334 131.637H54.8485V137.122H60.3334V131.637Z" fill="black"/>
<path d="M60.3334 137.121H54.8485V142.606H60.3334V137.121Z" fill="black"/>
<path d="M60.3334 142.606H54.8485V148.091H60.3334V142.606Z" fill="black"/>
<path d="M60.3334 148.091H54.8485V153.576H60.3334V148.091Z" fill="black"/>
<path d="M60.3334 153.576H54.8485V159.061H60.3334V153.576Z" fill="black"/>
<path d="M65.8182 65.8184H60.3333V71.3032H65.8182V65.8184Z" fill="black"/>
<path d="M65.8182 87.7578H60.3333V93.2427H65.8182V87.7578Z" fill="black"/>
<path d="M71.303 32.9092H65.8182V38.394H71.303V32.9092Z" fill="black"/>
<path d="M71.303 54.8486H65.8182V60.3335H71.303V54.8486Z" fill="black"/>
<path d="M71.303 60.3335H65.8182V65.8183H71.303V60.3335Z" fill="black"/>
<path d="M71.303 65.8184H65.8182V71.3032H71.303V65.8184Z" fill="black"/>
<path d="M71.303 71.3032H65.8182V76.7881H71.303V71.3032Z" fill="black"/>
<path d="M71.303 87.7578H65.8182V93.2427H71.303V87.7578Z" fill="black"/>
<path d="M71.303 93.2422H65.8182V98.727H71.303V93.2422Z" fill="black"/>
<path d="M71.303 98.7275H65.8182V104.212H71.303V98.7275Z" fill="black"/>
<path d="M71.303 109.697H65.8182V115.182H71.303V109.697Z" fill="black"/>
<path d="M71.303 115.182H65.8182V120.666H71.303V115.182Z" fill="black"/>
<path d="M71.303 120.667H65.8182V126.152H71.303V120.667Z" fill="black"/>
<path d="M71.303 126.151H65.8182V131.636H71.303V126.151Z" fill="black"/>
<path d="M71.303 131.637H65.8182V137.122H71.303V131.637Z" fill="black"/>
<path d="M71.303 142.606H65.8182V148.091H71.303V142.606Z" fill="black"/>
<path d="M71.303 148.091H65.8182V153.576H71.303V148.091Z" fill="black"/>
<path d="M71.303 153.576H65.8182V159.061H71.303V153.576Z" fill="black"/>
<path d="M76.7879 21.9395H71.303V27.4243H76.7879V21.9395Z" fill="black"/>
<path d="M76.7879 32.9092H71.303V38.394H76.7879V32.9092Z" fill="black"/>
<path d="M76.7879 38.394H71.303V43.8789H76.7879V38.394Z" fill="black"/>
<path d="M76.7879 49.3638H71.303V54.8486H76.7879V49.3638Z" fill="black"/>
<path d="M76.7879 60.3335H71.303V65.8183H76.7879V60.3335Z" fill="black"/>
<path d="M76.7879 76.7881H71.303V82.2729H76.7879V76.7881Z" fill="black"/>
<path d="M76.7879 98.7275H71.303V104.212H76.7879V98.7275Z" fill="black"/>
<path d="M76.7879 104.212H71.303V109.697H76.7879V104.212Z" fill="black"/>
<path d="M76.7879 126.151H71.303V131.636H76.7879V126.151Z" fill="black"/>
<path d="M76.7879 131.637H71.303V137.122H76.7879V131.637Z" fill="black"/>
<path d="M76.7879 142.606H71.303V148.091H76.7879V142.606Z" fill="black"/>
<path d="M82.2728 27.4243H76.7879V32.9092H82.2728V27.4243Z" fill="black"/>
<path d="M82.2728 32.9092H76.7879V38.394H82.2728V32.9092Z" fill="black"/>
<path d="M82.2728 38.394H76.7879V43.8789H82.2728V38.394Z" fill="black"/>
<path d="M82.2728 43.8789H76.7879V49.3638H82.2728V43.8789Z" fill="black"/>
<path d="M82.2728 54.8486H76.7879V60.3335H82.2728V54.8486Z" fill="black"/>
<path d="M82.2728 60.3335H76.7879V65.8183H82.2728V60.3335Z" fill="black"/>
<path d="M82.2728 65.8184H76.7879V71.3032H82.2728V65.8184Z" fill="black"/>
<path d="M82.2728 71.3032H76.7879V76.7881H82.2728V71.3032Z" fill="black"/>
<path d="M82.2728 109.697H76.7879V115.182H82.2728V109.697Z" fill="black"/>
<path d="M82.2728 120.667H76.7879V126.152H82.2728V120.667Z" fill="black"/>
<path d="M82.2728 142.606H76.7879V148.091H82.2728V142.606Z" fill="black"/>
<path d="M82.2728 153.576H76.7879V159.061H82.2728V153.576Z" fill="black"/>
<path d="M87.7576 27.4243H82.2727V32.9092H87.7576V27.4243Z" fill="black"/>
<path d="M87.7576 38.394H82.2727V43.8789H87.7576V38.394Z" fill="black"/>
<path d="M87.7576 65.8184H82.2727V71.3032H87.7576V65.8184Z" fill="black"/>
<path d="M87.7576 71.3032H82.2727V76.7881H87.7576V71.3032Z" fill="black"/>
<path d="M87.7576 87.7578H82.2727V93.2427H87.7576V87.7578Z" fill="black"/>
<path d="M87.7576 104.212H82.2727V109.697H87.7576V104.212Z" fill="black"/>
<path d="M87.7576 109.697H82.2727V115.182H87.7576V109.697Z" fill="black"/>
<path d="M87.7576 131.637H82.2727V137.122H87.7576V131.637Z" fill="black"/>
<path d="M93.2424 21.9395H87.7576V27.4243H93.2424V21.9395Z" fill="black"/>
<path d="M93.2424 27.4243H87.7576V32.9092H93.2424V27.4243Z" fill="black"/>
<path d="M93.2424 32.9092H87.7576V38.394H93.2424V32.9092Z" fill="black"/>
<path d="M93.2424 54.8486H87.7576V60.3335H93.2424V54.8486Z" fill="black"/>
<path d="M93.2424 60.3335H87.7576V65.8183H93.2424V60.3335Z" fill="black"/>
<path d="M93.2424 65.8184H87.7576V71.3032H93.2424V65.8184Z" fill="black"/>
<path d="M93.2424 82.2729H87.7576V87.7578H93.2424V82.2729Z" fill="black"/>
<path d="M93.2424 87.7578H87.7576V93.2427H93.2424V87.7578Z" fill="black"/>
<path d="M93.2424 104.212H87.7576V109.697H93.2424V104.212Z" fill="black"/>
<path d="M93.2424 109.697H87.7576V115.182H93.2424V109.697Z" fill="black"/>
<path d="M93.2424 115.182H87.7576V120.666H93.2424V115.182Z" fill="black"/>
<path d="M93.2424 126.151H87.7576V131.636H93.2424V126.151Z" fill="black"/>
<path d="M93.2424 131.637H87.7576V137.122H93.2424V131.637Z" fill="black"/>
<path d="M93.2424 137.121H87.7576V142.606H93.2424V137.121Z" fill="black"/>
<path d="M93.2424 153.576H87.7576V159.061H93.2424V153.576Z" fill="black"/>
<path d="M98.7273 21.9395H93.2424V27.4243H98.7273V21.9395Z" fill="black"/>
<path d="M98.7273 43.8789H93.2424V49.3638H98.7273V43.8789Z" fill="black"/>
<path d="M98.7273 49.3638H93.2424V54.8486H98.7273V49.3638Z" fill="black"/>
<path d="M98.7273 60.3335H93.2424V65.8183H98.7273V60.3335Z" fill="black"/>
<path d="M98.7273 65.8184H93.2424V71.3032H98.7273V65.8184Z" fill="black"/>
<path d="M98.7273 82.2729H93.2424V87.7578H98.7273V82.2729Z" fill="black"/>
<path d="M98.7273 87.7578H93.2424V93.2427H98.7273V87.7578Z" fill="black"/>
<path d="M98.7273 98.7275H93.2424V104.212H98.7273V98.7275Z" fill="black"/>
<path d="M98.7273 104.212H93.2424V109.697H98.7273V104.212Z" fill="black"/>
<path d="M98.7273 109.697H93.2424V115.182H98.7273V109.697Z" fill="black"/>
<path d="M98.7273 115.182H93.2424V120.666H98.7273V115.182Z" fill="black"/>
<path d="M98.7273 126.151H93.2424V131.636H98.7273V126.151Z" fill="black"/>
<path d="M98.7273 131.637H93.2424V137.122H98.7273V131.637Z" fill="black"/>
<path d="M98.7273 142.606H93.2424V148.091H98.7273V142.606Z" fill="black"/>
<path d="M98.7273 148.091H93.2424V153.576H98.7273V148.091Z" fill="black"/>
<path d="M98.7273 153.576H93.2424V159.061H98.7273V153.576Z" fill="black"/>
<path d="M104.212 21.9395H98.7273V27.4243H104.212V21.9395Z" fill="black"/>
<path d="M104.212 27.4243H98.7273V32.9092H104.212V27.4243Z" fill="black"/>
<path d="M104.212 32.9092H98.7273V38.394H104.212V32.9092Z" fill="black"/>
<path d="M104.212 38.394H98.7273V43.8789H104.212V38.394Z" fill="black"/>
<path d="M104.212 43.8789H98.7273V49.3638H104.212V43.8789Z" fill="black"/>
<path d="M104.212 49.3638H98.7273V54.8486H104.212V49.3638Z" fill="black"/>
<path d="M104.212 54.8486H98.7273V60.3335H104.212V54.8486Z" fill="black"/>
<path d="M104.212 76.7881H98.7273V82.2729H104.212V76.7881Z" fill="black"/>
<path d="M104.212 82.2729H98.7273V87.7578H104.212V82.2729Z" fill="black"/>
<path d="M104.212 126.151H98.7273V131.636H104.212V126.151Z" fill="black"/>
<path d="M104.212 131.637H98.7273V137.122H104.212V131.637Z" fill="black"/>
<path d="M109.697 21.9395H104.212V27.4243H109.697V21.9395Z" fill="black"/>
<path d="M109.697 27.4243H104.212V32.9092H109.697V27.4243Z" fill="black"/>
<path d="M109.697 32.9092H104.212V38.394H109.697V32.9092Z" fill="black"/>
<path d="M109.697 43.8789H104.212V49.3638H109.697V43.8789Z" fill="black"/>
<path d="M109.697 49.3638H104.212V54.8486H109.697V49.3638Z" fill="black"/>
<path d="M109.697 82.2729H104.212V87.7578H109.697V82.2729Z" fill="black"/>
<path d="M109.697 104.212H104.212V109.697H109.697V104.212Z" fill="black"/>
<path d="M109.697 120.667H104.212V126.152H109.697V120.667Z" fill="black"/>
<path d="M109.697 137.121H104.212V142.606H109.697V137.121Z" fill="black"/>
<path d="M109.697 142.606H104.212V148.091H109.697V142.606Z" fill="black"/>
<path d="M109.697 153.576H104.212V159.061H109.697V153.576Z" fill="black"/>
<path d="M115.182 27.4243H109.697V32.9092H115.182V27.4243Z" fill="black"/>
<path d="M115.182 49.3638H109.697V54.8486H115.182V49.3638Z" fill="black"/>
<path d="M115.182 54.8486H109.697V60.3335H115.182V54.8486Z" fill="black"/>
<path d="M115.182 65.8184H109.697V71.3032H115.182V65.8184Z" fill="black"/>
<path d="M115.182 71.3032H109.697V76.7881H115.182V71.3032Z" fill="black"/>
<path d="M115.182 76.7881H109.697V82.2729H115.182V76.7881Z" fill="black"/>
<path d="M115.182 82.2729H109.697V87.7578H115.182V82.2729Z" fill="black"/>
<path d="M115.182 87.7578H109.697V93.2427H115.182V87.7578Z" fill="black"/>
<path d="M115.182 93.2422H109.697V98.727H115.182V93.2422Z" fill="black"/>
<path d="M115.182 98.7275H109.697V104.212H115.182V98.7275Z" fill="black"/>
<path d="M115.182 104.212H109.697V109.697H115.182V104.212Z" fill="black"/>
<path d="M115.182 109.697H109.697V115.182H115.182V109.697Z" fill="black"/>
<path d="M115.182 115.182H109.697V120.666H115.182V115.182Z" fill="black"/>
<path d="M115.182 120.667H109.697V126.152H115.182V120.667Z" fill="black"/>
<path d="M115.182 126.151H109.697V131.636H115.182V126.151Z" fill="black"/>
<path d="M115.182 131.637H109.697V137.122H115.182V131.637Z" fill="black"/>
<path d="M115.182 142.606H109.697V148.091H115.182V142.606Z" fill="black"/>
<path d="M115.182 148.091H109.697V153.576H115.182V148.091Z" fill="black"/>
<path d="M115.182 153.576H109.697V159.061H115.182V153.576Z" fill="black"/>
<path d="M120.667 65.8184H115.182V71.3032H120.667V65.8184Z" fill="black"/>
<path d="M120.667 76.7881H115.182V82.2729H120.667V76.7881Z" fill="black"/>
<path d="M120.667 87.7578H115.182V93.2427H120.667V87.7578Z" fill="black"/>
<path d="M120.667 98.7275H115.182V104.212H120.667V98.7275Z" fill="black"/>
<path d="M120.667 109.697H115.182V115.182H120.667V109.697Z" fill="black"/>
<path d="M120.667 131.637H115.182V137.122H120.667V131.637Z" fill="black"/>
<path d="M120.667 137.121H115.182V142.606H120.667V137.121Z" fill="black"/>
<path d="M126.152 21.9395H120.667V27.4243H126.152V21.9395Z" fill="black"/>
<path d="M126.152 27.4243H120.667V32.9092H126.152V27.4243Z" fill="black"/>
<path d="M126.152 32.9092H120.667V38.394H126.152V32.9092Z" fill="black"/>
<path d="M126.152 38.394H120.667V43.8789H126.152V38.394Z" fill="black"/>
<path d="M126.152 43.8789H120.667V49.3638H126.152V43.8789Z" fill="black"/>
<path d="M126.152 49.3638H120.667V54.8486H126.152V49.3638Z" fill="black"/>
<path d="M126.152 54.8486H120.667V60.3335H126.152V54.8486Z" fill="black"/>
<path d="M126.152 65.8184H120.667V71.3032H126.152V65.8184Z" fill="black"/>
<path d="M126.152 71.3032H120.667V76.7881H126.152V71.3032Z" fill="black"/>
<path d="M126.152 76.7881H120.667V82.2729H126.152V76.7881Z" fill="black"/>
<path d="M126.152 82.2729H120.667V87.7578H126.152V82.2729Z" fill="black"/>
<path d="M126.152 87.7578H120.667V93.2427H126.152V87.7578Z" fill="black"/>
<path d="M126.152 93.2422H120.667V98.727H126.152V93.2422Z" fill="black"/>
<path d="M126.152 98.7275H120.667V104.212H126.152V98.7275Z" fill="black"/>
<path d="M126.152 104.212H120.667V109.697H126.152V104.212Z" fill="black"/>
<path d="M126.152 109.697H120.667V115.182H126.152V109.697Z" fill="black"/>
<path d="M126.152 120.667H120.667V126.152H126.152V120.667Z" fill="black"/>
<path d="M126.152 131.637H120.667V137.122H126.152V131.637Z" fill="black"/>
<path d="M126.152 148.091H120.667V153.576H126.152V148.091Z" fill="black"/>
<path d="M131.636 21.9395H126.151V27.4243H131.636V21.9395Z" fill="black"/>
<path d="M131.636 54.8486H126.151V60.3335H131.636V54.8486Z" fill="black"/>
<path d="M131.636 76.7881H126.151V82.2729H131.636V76.7881Z" fill="black"/>
<path d="M131.636 87.7578H126.151V93.2427H131.636V87.7578Z" fill="black"/>
<path d="M131.636 98.7275H126.151V104.212H131.636V98.7275Z" fill="black"/>
<path d="M131.636 109.697H126.151V115.182H131.636V109.697Z" fill="black"/>
<path d="M131.636 131.637H126.151V137.122H131.636V131.637Z" fill="black"/>
<path d="M131.636 137.121H126.151V142.606H131.636V137.121Z" fill="black"/>
<path d="M131.636 153.576H126.151V159.061H131.636V153.576Z" fill="black"/>
<path d="M137.121 21.9395H131.636V27.4243H137.121V21.9395Z" fill="black"/>
<path d="M137.121 32.9092H131.636V38.394H137.121V32.9092Z" fill="black"/>
<path d="M137.121 38.394H131.636V43.8789H137.121V38.394Z" fill="black"/>
<path d="M137.121 43.8789H131.636V49.3638H137.121V43.8789Z" fill="black"/>
<path d="M137.121 54.8486H131.636V60.3335H137.121V54.8486Z" fill="black"/>
<path d="M137.121 104.212H131.636V109.697H137.121V104.212Z" fill="black"/>
<path d="M137.121 109.697H131.636V115.182H137.121V109.697Z" fill="black"/>
<path d="M137.121 115.182H131.636V120.666H137.121V115.182Z" fill="black"/>
<path d="M137.121 120.667H131.636V126.152H137.121V120.667Z" fill="black"/>
<path d="M137.121 126.151H131.636V131.636H137.121V126.151Z" fill="black"/>
<path d="M137.121 131.637H131.636V137.122H137.121V131.637Z" fill="black"/>
<path d="M137.121 137.121H131.636V142.606H137.121V137.121Z" fill="black"/>
<path d="M137.121 142.606H131.636V148.091H137.121V142.606Z" fill="black"/>
<path d="M137.121 148.091H131.636V153.576H137.121V148.091Z" fill="black"/>
<path d="M142.606 21.9395H137.121V27.4243H142.606V21.9395Z" fill="black"/>
<path d="M142.606 32.9092H137.121V38.394H142.606V32.9092Z" fill="black"/>
<path d="M142.606 38.394H137.121V43.8789H142.606V38.394Z" fill="black"/>
<path d="M142.606 43.8789H137.121V49.3638H142.606V43.8789Z" fill="black"/>
<path d="M142.606 54.8486H137.121V60.3335H142.606V54.8486Z" fill="black"/>
<path d="M142.606 87.7578H137.121V93.2427H142.606V87.7578Z" fill="black"/>
<path d="M142.606 93.2422H137.121V98.727H142.606V93.2422Z" fill="black"/>
<path d="M142.606 109.697H137.121V115.182H142.606V109.697Z" fill="black"/>
<path d="M142.606 115.182H137.121V120.666H142.606V115.182Z" fill="black"/>
<path d="M142.606 120.667H137.121V126.152H142.606V120.667Z" fill="black"/>
<path d="M142.606 126.151H137.121V131.636H142.606V126.151Z" fill="black"/>
<path d="M142.606 131.637H137.121V137.122H142.606V131.637Z" fill="black"/>
<path d="M142.606 137.121H137.121V142.606H142.606V137.121Z" fill="black"/>
<path d="M142.606 148.091H137.121V153.576H142.606V148.091Z" fill="black"/>
<path d="M148.091 21.9395H142.606V27.4243H148.091V21.9395Z" fill="black"/>
<path d="M148.091 32.9092H142.606V38.394H148.091V32.9092Z" fill="black"/>
<path d="M148.091 38.394H142.606V43.8789H148.091V38.394Z" fill="black"/>
<path d="M148.091 43.8789H142.606V49.3638H148.091V43.8789Z" fill="black"/>
<path d="M148.091 54.8486H142.606V60.3335H148.091V54.8486Z" fill="black"/>
<path d="M148.091 65.8184H142.606V71.3032H148.091V65.8184Z" fill="black"/>
<path d="M148.091 76.7881H142.606V82.2729H148.091V76.7881Z" fill="black"/>
<path d="M148.091 98.7275H142.606V104.212H148.091V98.7275Z" fill="black"/>
<path d="M148.091 137.121H142.606V142.606H148.091V137.121Z" fill="black"/>
<path d="M153.576 21.9395H148.091V27.4243H153.576V21.9395Z" fill="black"/>
<path d="M153.576 54.8486H148.091V60.3335H153.576V54.8486Z" fill="black"/>
<path d="M153.576 76.7881H148.091V82.2729H153.576V76.7881Z" fill="black"/>
<path d="M153.576 82.2729H148.091V87.7578H153.576V82.2729Z" fill="black"/>
<path d="M153.576 87.7578H148.091V93.2427H153.576V87.7578Z" fill="black"/>
<path d="M153.576 98.7275H148.091V104.212H153.576V98.7275Z" fill="black"/>
<path d="M153.576 104.212H148.091V109.697H153.576V104.212Z" fill="black"/>
<path d="M153.576 115.182H148.091V120.666H153.576V115.182Z" fill="black"/>
<path d="M153.576 120.667H148.091V126.152H153.576V120.667Z" fill="black"/>
<path d="M153.576 148.091H148.091V153.576H153.576V148.091Z" fill="black"/>
<path d="M153.576 153.576H148.091V159.061H153.576V153.576Z" fill="black"/>
<path d="M159.061 21.9395H153.576V27.4243H159.061V21.9395Z" fill="black"/>
<path d="M159.061 27.4243H153.576V32.9092H159.061V27.4243Z" fill="black"/>
<path d="M159.061 32.9092H153.576V38.394H159.061V32.9092Z" fill="black"/>
<path d="M159.061 38.394H153.576V43.8789H159.061V38.394Z" fill="black"/>
<path d="M159.061 43.8789H153.576V49.3638H159.061V43.8789Z" fill="black"/>
<path d="M159.061 49.3638H153.576V54.8486H159.061V49.3638Z" fill="black"/>
<path d="M159.061 54.8486H153.576V60.3335H159.061V54.8486Z" fill="black"/>
<path d="M159.061 71.3032H153.576V76.7881H159.061V71.3032Z" fill="black"/>
<path d="M159.061 76.7881H153.576V82.2729H159.061V76.7881Z" fill="black"/>
<path d="M159.061 87.7578H153.576V93.2427H159.061V87.7578Z" fill="black"/>
<path d="M159.061 93.2422H153.576V98.727H159.061V93.2422Z" fill="black"/>
<path d="M159.061 98.7275H153.576V104.212H159.061V98.7275Z" fill="black"/>
<path d="M159.061 115.182H153.576V120.666H159.061V115.182Z" fill="black"/>
<path d="M159.061 120.667H153.576V126.152H159.061V120.667Z" fill="black"/>
<path d="M159.061 126.151H153.576V131.636H159.061V126.151Z" fill="black"/>
<path d="M159.061 142.606H153.576V148.091H159.061V142.606Z" fill="black"/>
<path d="M159.061 153.576H153.576V159.061H159.061V153.576Z" fill="black"/>
</svg>
